<svg id="Layer_1" data-name="Layer 1" xmlns="http://www.w3.org/2000/svg" xmlns:xlink="http://www.w3.org/1999/xlink" viewBox="0 0 500.5 300"><defs><linearGradient id="linear-gradient" x1="-0.5" y1="150" x2="500" y2="150" gradientUnits="userSpaceOnUse"><stop offset="0" stop-color="#12003f"/><stop offset="0.746" stop-color="#aab1ff"/></linearGradient><linearGradient id="linear-gradient-2" x1="416.02" y1="3.58" x2="409.506" y2="135.808" xlink:href="#linear-gradient"/><linearGradient id="linear-gradient-3" x1="351.13" y1="270.942" x2="558.767" y2="270.942" gradientTransform="matrix(0.902, 0.431, 0.431, -0.902, -165.337, 210.81)" gradientUnits="userSpaceOnUse"><stop offset="0" stop-color="#10a"/><stop offset="0.52" stop-color="#4f386d"/><stop offset="1" stop-color="#883fff"/></linearGradient><linearGradient id="linear-gradient-4" x1="351.661" y1="266.782" x2="556.314" y2="266.782" gradientTransform="matrix(0.902, 0.431, 0.431, -0.902, -165.337, 210.81)" gradientUnits="userSpaceOnUse"><stop offset="0" stop-color="#10a"/><stop offset="0.52" stop-color="#56344d"/><stop offset="1" stop-color="#883fff"/></linearGradient><linearGradient id="linear-gradient-5" x1="474.004" y1="301.373" x2="558.066" y2="301.373" xlink:href="#linear-gradient-4"/><linearGradient id="linear-gradient-6" x1="354.505" y1="221.525" x2="418.496" y2="221.525" xlink:href="#linear-gradient-4"/><linearGradient id="linear-gradient-7" x1="209.412" y1="21.626" x2="401.145" y2="-57.568" gradientTransform="matrix(0.759, 0.651, -0.651, 0.759, 119.79, -18.005)" xlink:href="#linear-gradient-3"/><linearGradient id="linear-gradient-8" x1="423.53" y1="280.927" x2="630.632" y2="280.927" gradientTransform="matrix(0.946, 0.31, 0.31, -0.946, -219.112, 264.437)" xlink:href="#linear-gradient-3"/><linearGradient id="linear-gradient-9" x1="424.222" y1="276.567" x2="628.349" y2="276.567" gradientTransform="matrix(0.946, 0.31, 0.31, -0.946, -219.112, 264.437)" xlink:href="#linear-gradient-4"/><linearGradient id="linear-gradient-10" x1="545.811" y1="311.316" x2="629.67" y2="311.316" gradientTransform="matrix(0.946, 0.31, 0.31, -0.946, -219.112, 264.437)" xlink:href="#linear-gradient-4"/><linearGradient id="linear-gradient-11" x1="427.215" y1="231.427" x2="491.006" y2="231.427" gradientTransform="matrix(0.946, 0.31, 0.31, -0.946, -219.112, 264.437)" xlink:href="#linear-gradient-4"/><linearGradient id="linear-gradient-12" x1="81.679" y1="127.127" x2="284.778" y2="127.127" gradientUnits="userSpaceOnUse"><stop offset="0" stop-color="#2a2000"/><stop offset="0.305" stop-color="#00082a"/><stop offset="1" stop-color="#ab94ff"/></linearGradient><linearGradient id="linear-gradient-13" x1="160.635" y1="71.133" x2="209.384" y2="71.133" xlink:href="#linear-gradient-12"/><linearGradient id="linear-gradient-14" x1="186.359" y1="49.369" x2="200.721" y2="49.369" xlink:href="#linear-gradient-12"/><linearGradient id="linear-gradient-15" x1="166.359" y1="49.218" x2="181.504" y2="49.218" xlink:href="#linear-gradient-12"/><linearGradient id="linear-gradient-16" x1="164.922" y1="217.341" x2="242.124" y2="217.341" gradientTransform="matrix(-1, 0, 0, 1, 375.387, 0)" gradientUnits="userSpaceOnUse"><stop offset="0.015" stop-color="#242a00"/><stop offset="1" stop-color="#ffdb94"/></linearGradient><linearGradient id="linear-gradient-17" x1="164.922" y1="202.799" x2="242.124" y2="202.799" gradientTransform="matrix(-1, 0, 0, 1, 375.887, 0)" xlink:href="#linear-gradient-16"/><linearGradient id="linear-gradient-18" x1="260.781" y1="205.291" x2="338.371" y2="205.291" xlink:href="#linear-gradient-16"/><linearGradient id="linear-gradient-19" x1="260.782" y1="191.099" x2="337.97" y2="191.099" gradientTransform="matrix(-0.018, -1, -1, 0.018, 272.484, 486.976)" xlink:href="#linear-gradient-16"/><linearGradient id="linear-gradient-20" x1="301.485" y1="210.353" x2="301.485" y2="210.353" gradientTransform="matrix(-1, 0, 0, 1, 375.887, 0)" xlink:href="#linear-gradient-16"/><linearGradient id="linear-gradient-21" x1="314.518" y1="210.353" x2="314.518" y2="210.353" gradientTransform="matrix(-1, 0, 0, 1, 375.887, 0)" xlink:href="#linear-gradient-16"/><linearGradient id="linear-gradient-22" x1="164.671" y1="200.619" x2="241.873" y2="200.619" xlink:href="#linear-gradient-16"/><linearGradient id="linear-gradient-23" x1="164.671" y1="186.077" x2="241.873" y2="186.077" gradientTransform="matrix(-1, 0, 0, 1, 375.887, 0)" xlink:href="#linear-gradient-16"/><linearGradient id="linear-gradient-24" x1="164.922" y1="183.128" x2="242.124" y2="183.128" xlink:href="#linear-gradient-16"/><linearGradient id="linear-gradient-25" x1="164.922" y1="168.587" x2="242.124" y2="168.587" gradientTransform="matrix(-1, 0, 0, 1, 375.887, 0)" xlink:href="#linear-gradient-16"/><linearGradient id="linear-gradient-26" x1="164.671" y1="167.711" x2="241.873" y2="167.711" xlink:href="#linear-gradient-16"/><linearGradient id="linear-gradient-27" x1="164.671" y1="153.17" x2="241.873" y2="153.17" gradientTransform="matrix(-1, 0, 0, 1, 375.887, 0)" xlink:href="#linear-gradient-16"/><linearGradient id="linear-gradient-28" x1="1038.43" y1="136.79" x2="1038.43" y2="136.79" gradientTransform="matrix(1, 0, 0, -0.98, -874.642, 324.083)" xlink:href="#linear-gradient-16"/><linearGradient id="linear-gradient-29" x1="199.794" y1="148.868" x2="199.794" y2="148.868" gradientTransform="matrix(-1, 0, 0, 1, 375.887, 0)" xlink:href="#linear-gradient-16"/><linearGradient id="linear-gradient-30" x1="264.185" y1="188.554" x2="341.387" y2="188.554" xlink:href="#linear-gradient-16"/><linearGradient id="linear-gradient-31" x1="264.185" y1="174.012" x2="341.387" y2="174.012" gradientTransform="matrix(-1, 0, 0, 1, 375.887, 0)" xlink:href="#linear-gradient-16"/><linearGradient id="linear-gradient-32" x1="260.481" y1="171.063" x2="337.683" y2="171.063" xlink:href="#linear-gradient-16"/><linearGradient id="linear-gradient-33" x1="260.481" y1="156.522" x2="337.683" y2="156.522" gradientTransform="matrix(-1, 0, 0, 1, 375.887, 0)" xlink:href="#linear-gradient-16"/><linearGradient id="linear-gradient-34" x1="284.846" y1="177.795" x2="284.846" y2="177.795" gradientTransform="matrix(-1, 0, 0, 1, 375.887, 0)" xlink:href="#linear-gradient-16"/><linearGradient id="linear-gradient-35" x1="293.312" y1="177.795" x2="293.312" y2="177.795" gradientTransform="matrix(-1, 0, 0, 1, 375.887, 0)" xlink:href="#linear-gradient-16"/><linearGradient id="linear-gradient-36" x1="234.695" y1="168.432" x2="234.695" y2="168.432" xlink:href="#linear-gradient-16"/><linearGradient id="linear-gradient-37" x1="234.695" y1="150.563" x2="234.695" y2="150.563" xlink:href="#linear-gradient-16"/><linearGradient id="linear-gradient-38" x1="222.123" y1="171.69" x2="222.308" y2="171.69" gradientTransform="matrix(-1, -0.01, -0.011, 0.94, 377.58, 13.249)" xlink:href="#linear-gradient-16"/><linearGradient id="linear-gradient-39" x1="233.173" y1="185.836" x2="233.173" y2="185.836" gradientTransform="matrix(-1, 0, 0, 1, 375.887, 0)" xlink:href="#linear-gradient-16"/><linearGradient id="linear-gradient-40" x1="192.163" y1="147.562" x2="192.163" y2="147.562" gradientTransform="matrix(-1, 0, 0, 1, 375.887, 0)" xlink:href="#linear-gradient-16"/><linearGradient id="linear-gradient-41" x1="205.891" y1="174.709" x2="205.891" y2="174.709" gradientTransform="matrix(-1, 0, 0, 1, 375.887, 0)" xlink:href="#linear-gradient-16"/><linearGradient id="linear-gradient-42" x1="222.99" y1="223.822" x2="300.192" y2="223.822" xlink:href="#linear-gradient-16"/><linearGradient id="linear-gradient-43" x1="222.99" y1="209.281" x2="300.192" y2="209.281" gradientTransform="matrix(-1, 0, 0, 1, 375.887, 0)" xlink:href="#linear-gradient-16"/><linearGradient id="linear-gradient-44" x1="237.449" y1="228.537" x2="237.449" y2="228.537" gradientTransform="matrix(-1, 0, 0, 1, 375.887, 0)" xlink:href="#linear-gradient-16"/><linearGradient id="linear-gradient-45" x1="250.482" y1="228.537" x2="250.482" y2="228.537" gradientTransform="matrix(-1, 0, 0, 1, 375.887, 0)" xlink:href="#linear-gradient-16"/><linearGradient id="linear-gradient-46" x1="222.99" y1="207.838" x2="300.192" y2="207.838" xlink:href="#linear-gradient-16"/><linearGradient id="linear-gradient-47" x1="222.99" y1="193.297" x2="300.192" y2="193.297" gradientTransform="matrix(-1, 0, 0, 1, 375.887, 0)" xlink:href="#linear-gradient-16"/><linearGradient id="linear-gradient-48" x1="282.798" y1="212.553" x2="282.798" y2="212.553" gradientTransform="matrix(-1, 0, 0, 1, 375.887, 0)" xlink:href="#linear-gradient-16"/><linearGradient id="linear-gradient-49" x1="290.793" y1="212.553" x2="290.793" y2="212.553" gradientTransform="matrix(-1, 0, 0, 1, 375.887, 0)" xlink:href="#linear-gradient-16"/><linearGradient id="linear-gradient-50" x1="232.95" y1="188.977" x2="310.54" y2="188.977" xlink:href="#linear-gradient-16"/><linearGradient id="linear-gradient-51" x1="232.95" y1="174.785" x2="310.139" y2="174.785" gradientTransform="matrix(-0.018, -1, -1, 0.018, 283.501, 443.13)" xlink:href="#linear-gradient-16"/><linearGradient id="linear-gradient-52" x1="273.654" y1="194.039" x2="273.654" y2="194.039" gradientTransform="matrix(-1, 0, 0, 1, 375.887, 0)" xlink:href="#linear-gradient-16"/><linearGradient id="linear-gradient-53" x1="286.687" y1="194.039" x2="286.687" y2="194.039" gradientTransform="matrix(-1, 0, 0, 1, 375.887, 0)" xlink:href="#linear-gradient-16"/><linearGradient id="linear-gradient-54" x1="156.909" y1="148.993" x2="234.498" y2="148.993" xlink:href="#linear-gradient-16"/><linearGradient id="linear-gradient-55" x1="156.909" y1="134.802" x2="234.097" y2="134.802" gradientTransform="matrix(-0.018, -1, -1, 0.018, 318.193, 327.84)" xlink:href="#linear-gradient-16"/><linearGradient id="linear-gradient-56" x1="197.612" y1="156.129" x2="197.612" y2="156.129" gradientTransform="matrix(-1, 0, 0, 1, 375.887, 0)" xlink:href="#linear-gradient-16"/><linearGradient id="linear-gradient-57" x1="210.646" y1="154.056" x2="210.646" y2="154.056" gradientTransform="matrix(-1, 0, 0, 1, 375.887, 0)" xlink:href="#linear-gradient-16"/></defs><title>bank</title><rect width="500.5" height="300" fill="#a198f4"/><path d="M500,296.475V300H-.5V0S249.75,15,271.2,172.5c0,0,7.15,82.5,207.35,120C486.2,293.925,493.351,295.275,500,296.475Z" transform="translate(0.5)" opacity="0.58" fill="url(#linear-gradient)"/>

<path d="M500,0V59.775C483.308,78,454.6,90,422,90c-51.714,0-93.6-30.225-93.6-67.5A50.156,50.156,0,0,1,333.782,0Z" transform="translate(0.5)" opacity="0.5" fill="url(#linear-gradient-2)"/><path d="M475.852,161.948,433.391,253.61a7.806,7.806,0,0,1-10.644,3.529h0l-170.658-83.8a8.247,8.247,0,0,1-4.036-10.738h0l42.458-91.665A7.806,7.806,0,0,1,301.155,67.4h0l170.671,83.8a8.247,8.247,0,0,1,4.03,10.74Z" transform="translate(0.5)" fill="url(#linear-gradient-3)"/><path d="M436.644,241.1c-8.7-1.724-24.085-11.066-59.02-65.9-50.289-79.017-116.653-37.373-116.653-37.373l-1.665.958,9.673-21.518,4.853-1.992S345.185,82.9,384.983,167.67C414.348,230.217,428.416,239.022,436.644,241.1Z" transform="translate(0.5)" fill="url(#linear-gradient-4)"/><path d="M475.852,161.948,459.6,197.073a58.491,58.491,0,0,1-31.025-6.029c-26.233-12.876-39.1-41.541-28.693-64a37.714,37.714,0,0,1,5.408-8.509l66.535,32.66a8.247,8.247,0,0,1,4.03,10.74Z" transform="translate(0.5)" opacity="0.49" fill="url(#linear-gradient-5)" style="isolation:isolate"/><path d="M304.091,198.866l-51.984-25.527a8.522,8.522,0,0,1-4.348-5.008c7.572-5.446,21.119-5.361,34.13,1.031C296.2,176.387,305.184,188.773,304.091,198.866Z" transform="translate(0.5)" opacity="0.26" fill="url(#linear-gradient-6)" style="isolation:isolate"/><ellipse cx="409.897" cy="227.237" rx="9.294" ry="9.727" transform="translate(-28.572 391.427) rotate(-49.511)" fill="#fff" opacity="0.69" style="isolation:isolate"/><ellipse cx="420.516" cy="232.568" rx="9.294" ry="9.727" transform="translate(-28.903 401.373) rotate(-49.511)" fill="#fff" opacity="0.69" style="isolation:isolate"/><line x1="297.426" y1="129.263" x2="298.181" y2="127.634" fill="none" stroke="#e6e6e6" stroke-miterlimit="10" stroke-width="0.2"/><polygon points="297.147 137.38 293.237 138.229 291.414 134.566 293.5 130.062 297.41 129.219 299.232 132.877 297.147 137.38" fill="none" stroke="#e6e6e6" stroke-miterlimit="10" stroke-width="0.2"/><line x1="299.216" y1="132.909" x2="306.179" y2="136.392" fill="none" stroke="#e6e6e6" stroke-miterlimit="10" stroke-width="0.2"/><line x1="297.128" y1="137.421" x2="303.107" y2="140.333" fill="none" stroke="#e6e6e6" stroke-miterlimit="10" stroke-width="0.2"/><line x1="291.455" y1="134.637" x2="286.686" y2="132.293" fill="none" stroke="#e6e6e6" stroke-miterlimit="10" stroke-width="0.2"/><line x1="293.543" y1="130.125" x2="288.777" y2="127.783" fill="none" stroke="#e6e6e6" stroke-miterlimit="10" stroke-width="0.2"/><line x1="298.171" y1="135.166" x2="301.467" y2="136.702" fill="none" stroke="#e6e6e6" stroke-miterlimit="10" stroke-width="0.2"/><path d="M288.654,121.775l18.982,9.321a2.738,2.738,0,0,1,1.34,3.565l-4.508,9.734a2.593,2.593,0,0,1-3.534,1.172l-18.982-9.322a2.738,2.738,0,0,1-1.34-3.565l4.508-9.733A2.592,2.592,0,0,1,288.654,121.775Z" transform="translate(0.5)" fill="none" stroke="#e6e6e6" stroke-miterlimit="10" stroke-width="0.2"/><text transform="matrix(0.784, 0.385, -0.42, 0.907, 391.687, 146.439)" opacity="0.33" font-size="15.33" font-family="MicrosoftPhagsPa-Bold, Microsoft PhagsPa" font-weight="700" style="isolation:isolate">BANKCARD</text><text transform="matrix(0.934, 0.459, -0.42, 0.907, 374.132, 173.616)" opacity="0.63" font-size="7.861" font-family="MicrosoftPhagsPa, Microsoft PhagsPa" style="isolation:isolate">FanyaBiashara</text><path d="M475.523,152.467l-30.209,96.779a7.72,7.72,0,0,1-10.048,4.855L256.288,191.927a8.338,8.338,0,0,1-5.347-10.206l30.19-96.794a7.721,7.721,0,0,1,10.049-4.856l179,62.191A8.337,8.337,0,0,1,475.523,152.467Z" transform="translate(0.5)" stroke-miterlimit="10" stroke-width="0.2" opacity="0.56" stroke="url(#linear-gradient-7)"/><path d="M479.405,147.941,449.2,244.72a7.721,7.721,0,0,1-10.048,4.856L260.17,187.4a8.337,8.337,0,0,1-5.347-10.205L285.013,80.4a7.721,7.721,0,0,1,10.049-4.856l179,62.191A8.337,8.337,0,0,1,479.405,147.941Z" transform="translate(0.5)" stroke="#898989" stroke-miterlimit="10" stroke-width="0.4" fill="url(#linear-gradient-8)"/><path d="M450.811,231.834c-8.8-.63-25.165-8.018-66.593-58.353C324.543,100.973,264.4,150.849,264.4,150.849l-1.539,1.164,6.816-22.678,4.536-2.6s66.252-41.261,116.3,38.322C427.433,223.774,442.441,230.778,450.811,231.834Z" transform="translate(0.5)" fill="url(#linear-gradient-9)"/><path d="M479.405,147.941l-11.574,37.075a57.64,57.64,0,0,1-31.344-2.1c-27.531-9.567-43.837-36.555-36.451-60.251a38.016,38.016,0,0,1,4.255-9.167l69.767,24.237A8.337,8.337,0,0,1,479.405,147.941Z" transform="translate(0.5)" opacity="0.49" fill="url(#linear-gradient-10)" style="isolation:isolate"/><path d="M314.674,206.33l-54.523-18.945a8.55,8.55,0,0,1-4.934-4.458c6.776-6.381,20.158-8.006,33.8-3.254C304.049,184.894,314.472,196.117,314.674,206.33Z" transform="translate(0.5)" opacity="0.26" fill="url(#linear-gradient-11)" style="isolation:isolate"/><ellipse cx="422.665" cy="221.358" rx="9.294" ry="9.727" transform="translate(-19.623 399.076) rotate(-49.511)" fill="#fff" opacity="0.69" style="isolation:isolate"/><ellipse cx="433.819" cy="225.348" rx="9.294" ry="9.727" transform="translate(-18.745 408.96) rotate(-49.511)" fill="#fff" opacity="0.69" style="isolation:isolate"/><line x1="299.267" y1="137.794" x2="299.804" y2="136.071" fill="none" stroke="#e6e6e6" stroke-miterlimit="10" stroke-width="0.2"/><polygon points="300.022 145.926 296.277 147.262 294.012 143.838 295.5 139.08 299.248 137.747 301.51 141.168 300.022 145.926" fill="none" stroke="#e6e6e6" stroke-miterlimit="10" stroke-width="0.2"/><line x1="301.497" y1="141.208" x2="308.805" y2="143.805" fill="none" stroke="#e6e6e6" stroke-miterlimit="10" stroke-width="0.2"/><line x1="300.012" y1="145.969" x2="306.28" y2="148.122" fill="none" stroke="#e6e6e6" stroke-miterlimit="10" stroke-width="0.2"/><line x1="294.061" y1="143.901" x2="289.059" y2="142.161" fill="none" stroke="#e6e6e6" stroke-miterlimit="10" stroke-width="0.2"/><line x1="295.548" y1="139.137" x2="290.546" y2="137.404" fill="none" stroke="#e6e6e6" stroke-miterlimit="10" stroke-width="0.2"/><line x1="300.754" y1="143.586" x2="304.197" y2="144.705" fill="none" stroke="#e6e6e6" stroke-miterlimit="10" stroke-width="0.2"/><path d="M289.638,131.354l19.908,6.919a2.769,2.769,0,0,1,1.776,3.389l-3.209,10.276a2.562,2.562,0,0,1-3.336,1.612l-19.909-6.918a2.769,2.769,0,0,1-1.775-3.389l3.209-10.276A2.563,2.563,0,0,1,289.638,131.354Z" transform="translate(0.5)" fill="none" stroke="#e6e6e6" stroke-miterlimit="10" stroke-width="0.2"/><text transform="matrix(0.82, 0.285, -0.298, 0.955, 394.071, 143.16)" opacity="0.3" font-size="15.385" fill="#fff" font-family="MicrosoftPhagsPa-Bold, Microsoft PhagsPa" font-weight="700" style="isolation:isolate">BANKCARD</text><text transform="matrix(0.976, 0.339, -0.298, 0.955, 380.228, 172.481)" opacity="0.63" font-size="7.89" font-family="MicrosoftPhagsPa, Microsoft PhagsPa" style="isolation:isolate">FanyaBiashara</text><path d="M282.054,199.132c-6.13,9.817-13.28,25.365-27.579,27.819H111.983c-14.3-2.454-21.449-18-27.579-27.819s0-32.728,0-32.728c8.175-60.552,75.588-94.916,75.588-94.916-8.673-8.581-16.04-24.793-20.106-35.022a6.652,6.652,0,0,1,4.349-8.738,7.969,7.969,0,0,1,2.521-.426h72.927c4.083.021,7.374,3.084,7.351,6.84a6.315,6.315,0,0,1-.456,2.313c-4.066,10.24-11.433,26.481-20.137,35.033,0,0,67.419,34.364,75.588,94.916C282.054,166.4,288.184,189.31,282.054,199.132Z" transform="translate(0.5)" stroke="#fff" stroke-miterlimit="10" fill="url(#linear-gradient-12)"/><line x1="160.635" y1="71.734" x2="209.384" y2="70.533" stroke="#fff" stroke-miterlimit="10" fill="url(#linear-gradient-13)"/><path d="M200.721,27.3c0,24.473-11.284,44.135-14.362,44.135" transform="translate(0.5)" stroke="#fff" stroke-miterlimit="10" fill="url(#linear-gradient-14)"/><path d="M166.359,27.3c0,24.473,9.5,43.831,15.145,43.831" transform="translate(0.5)" stroke="#fff" stroke-miterlimit="10" fill="url(#linear-gradient-15)"/><path d="M133.263,202.739V220.49c0,6.328,17.28,11.453,38.6,11.453s38.6-5.125,38.6-11.453V202.739c0,3.584-5.537,6.779-14.211,8.875a106.791,106.791,0,0,1-24.39,2.577,106.791,106.791,0,0,1-24.39-2.577C138.8,209.518,133.263,206.323,133.263,202.739Z" transform="translate(0.5)" stroke="#d6c77c" stroke-miterlimit="10" stroke-width="3" fill="url(#linear-gradient-16)"/><ellipse cx="172.364" cy="202.799" rx="38.601" ry="12.868" stroke="#d6c77c" stroke-miterlimit="10" stroke-width="3" fill="url(#linear-gradient-17)"/><path d="M37.42,190.322l-.4,17.748c-.144,6.326,17.016,11.771,38.333,12.167s38.709-4.408,38.853-10.734l.4-17.748c-.082,3.584-5.691,6.676-14.41,8.61a106.857,106.857,0,0,1-24.443,2.124,106.665,106.665,0,0,1-24.327-3.029C42.8,197.2,37.338,193.906,37.42,190.322Z" transform="translate(0.5)" stroke="#d6c77c" stroke-miterlimit="10" stroke-width="3" fill="url(#linear-gradient-18)"/><ellipse cx="76.011" cy="191.099" rx="12.869" ry="38.6" transform="translate(-115.929 263.648) rotate(-88.966)" stroke="#d6c77c" stroke-miterlimit="10" stroke-width="3" fill="url(#linear-gradient-19)"/><line x1="74.402" y1="202.494" x2="74.402" y2="218.213" stroke="#d6c77c" stroke-miterlimit="10" stroke-width="3" fill="url(#linear-gradient-20)"/><line x1="61.369" y1="202.494" x2="61.369" y2="218.213" stroke="#d6c77c" stroke-miterlimit="10" stroke-width="3" fill="url(#linear-gradient-21)"/><path d="M133.514,186.017v17.751c0,6.328,17.28,11.453,38.6,11.453s38.6-5.125,38.6-11.453V186.017c0,3.585-5.537,6.78-14.211,8.876a106.8,106.8,0,0,1-24.39,2.576,106.8,106.8,0,0,1-24.39-2.576C139.052,192.8,133.514,189.6,133.514,186.017Z" transform="translate(0.5)" stroke="#d6c77c" stroke-miterlimit="10" stroke-width="3" fill="url(#linear-gradient-22)"/><ellipse cx="172.615" cy="186.077" rx="38.601" ry="12.868" stroke="#d6c77c" stroke-miterlimit="10" stroke-width="3" fill="url(#linear-gradient-23)"/><path d="M133.263,168.526v17.752c0,6.328,17.28,11.453,38.6,11.453s38.6-5.125,38.6-11.453V168.526c0,3.585-5.537,6.78-14.211,8.876a106.791,106.791,0,0,1-24.39,2.577,106.791,106.791,0,0,1-24.39-2.577C138.8,175.306,133.263,172.111,133.263,168.526Z" transform="translate(0.5)" stroke="#d6c77c" stroke-miterlimit="10" stroke-width="3" fill="url(#linear-gradient-24)"/><ellipse cx="172.364" cy="168.587" rx="38.601" ry="12.868" stroke="#d6c77c" stroke-miterlimit="10" stroke-width="3" fill="url(#linear-gradient-25)"/><path d="M133.514,153.109v17.752c0,6.327,17.28,11.452,38.6,11.452s38.6-5.125,38.6-11.452V153.109c0,3.585-5.537,6.78-14.211,8.876a106.791,106.791,0,0,1-24.39,2.577,106.791,106.791,0,0,1-24.39-2.577C139.052,159.889,133.514,156.694,133.514,153.109Z" transform="translate(0.5)" stroke="#d6c77c" stroke-miterlimit="10" stroke-width="3" fill="url(#linear-gradient-26)"/><ellipse cx="172.615" cy="153.17" rx="38.601" ry="12.868" stroke="#d6c77c" stroke-miterlimit="10" stroke-width="3" fill="url(#linear-gradient-27)"/><line x1="163.787" y1="198.034" x2="163.787" y2="182.05" stroke="#d6c77c" stroke-miterlimit="10" stroke-width="3" fill="url(#linear-gradient-28)"/><line x1="176.093" y1="141.21" x2="176.093" y2="156.526" stroke="#d6c77c" stroke-miterlimit="10" stroke-width="3" fill="url(#linear-gradient-29)"/><path d="M34,173.952V191.7c0,6.328,17.28,11.453,38.6,11.453s38.6-5.125,38.6-11.453V173.952c0,3.584-5.537,6.779-14.211,8.875A106.791,106.791,0,0,1,72.6,185.4a106.791,106.791,0,0,1-24.39-2.577C39.538,180.731,34,177.536,34,173.952Z" transform="translate(0.5)" stroke="#d6c77c" stroke-miterlimit="10" stroke-width="3" fill="url(#linear-gradient-30)"/><ellipse cx="73.101" cy="174.012" rx="38.601" ry="12.868" stroke="#d6c77c" stroke-miterlimit="10" stroke-width="3" fill="url(#linear-gradient-31)"/><path d="M37.7,156.461v17.752c0,6.327,17.28,11.452,38.6,11.452s38.6-5.125,38.6-11.452V156.461c0,3.585-5.537,6.78-14.211,8.876a106.791,106.791,0,0,1-24.39,2.577,106.791,106.791,0,0,1-24.39-2.577C43.242,163.241,37.7,160.046,37.7,156.461Z" transform="translate(0.5)" stroke="#d6c77c" stroke-miterlimit="10" stroke-width="3" fill="url(#linear-gradient-32)"/><ellipse cx="76.805" cy="156.522" rx="38.601" ry="12.868" stroke="#d6c77c" stroke-miterlimit="10" stroke-width="3" fill="url(#linear-gradient-33)"/><line x1="91.041" y1="170.136" x2="91.041" y2="185.453" stroke="#d6c77c" stroke-miterlimit="10" stroke-width="3" fill="url(#linear-gradient-34)"/><line x1="82.575" y1="170.136" x2="82.575" y2="185.453" stroke="#d6c77c" stroke-miterlimit="10" stroke-width="3" fill="url(#linear-gradient-35)"/><path d="M140.692,168.432" transform="translate(0.5)" stroke="#d6c77c" stroke-miterlimit="10" stroke-width="3" fill="url(#linear-gradient-36)"/><path d="M140.692,150.563" transform="translate(0.5)" stroke="#d6c77c" stroke-miterlimit="10" stroke-width="3" fill="url(#linear-gradient-37)"/><line x1="153.517" y1="164.317" x2="153.517" y2="180.319" stroke="#d6c77c" stroke-miterlimit="10" stroke-width="3" fill="url(#linear-gradient-38)"/><line x1="142.714" y1="177.994" x2="142.714" y2="193.677" stroke="#d6c77c" stroke-miterlimit="10" stroke-width="3" fill="url(#linear-gradient-39)"/><line x1="183.724" y1="138.323" x2="183.724" y2="156.8" stroke="#d6c77c" stroke-miterlimit="10" stroke-width="3" fill="url(#linear-gradient-40)"/><line x1="169.996" y1="164.884" x2="169.996" y2="184.534" stroke="#d6c77c" stroke-miterlimit="10" stroke-width="3" fill="url(#linear-gradient-41)"/><path d="M75.195,209.22v17.752c0,6.327,17.28,11.452,38.6,11.452s38.6-5.125,38.6-11.452V209.22c0,3.585-5.538,6.78-14.211,8.876a106.791,106.791,0,0,1-24.39,2.577A106.8,106.8,0,0,1,89.405,218.1C80.732,216,75.195,212.805,75.195,209.22Z" transform="translate(0.5)" stroke="#d6c77c" stroke-miterlimit="10" stroke-width="3" fill="url(#linear-gradient-42)"/><ellipse cx="114.296" cy="209.281" rx="38.601" ry="12.868" stroke="#d6c77c" stroke-miterlimit="10" stroke-width="3" fill="url(#linear-gradient-43)"/><line x1="138.438" y1="220.677" x2="138.438" y2="236.397" stroke="#d6c77c" stroke-miterlimit="10" stroke-width="3" fill="url(#linear-gradient-44)"/><line x1="125.404" y1="220.677" x2="125.404" y2="236.397" stroke="#d6c77c" stroke-miterlimit="10" stroke-width="3" fill="url(#linear-gradient-45)"/><path d="M75.195,193.236v17.752c0,6.327,17.28,11.452,38.6,11.452s38.6-5.125,38.6-11.452V193.236c0,3.585-5.538,6.78-14.211,8.876a106.791,106.791,0,0,1-24.39,2.577,106.8,106.8,0,0,1-24.391-2.577C80.732,200.016,75.195,196.821,75.195,193.236Z" transform="translate(0.5)" stroke="#d6c77c" stroke-miterlimit="10" stroke-width="3" fill="url(#linear-gradient-46)"/><ellipse cx="114.296" cy="193.297" rx="38.601" ry="12.868" stroke="#d6c77c" stroke-miterlimit="10" stroke-width="3" fill="url(#linear-gradient-47)"/><line x1="93.089" y1="204.693" x2="93.089" y2="220.413" stroke="#d6c77c" stroke-miterlimit="10" stroke-width="3" fill="url(#linear-gradient-48)"/><line x1="85.094" y1="204.693" x2="85.094" y2="220.413" stroke="#d6c77c" stroke-miterlimit="10" stroke-width="3" fill="url(#linear-gradient-49)"/><path d="M65.251,174.008l-.4,17.748c-.144,6.326,17.016,11.771,38.333,12.167s38.709-4.408,38.853-10.734l.4-17.748c-.082,3.584-5.691,6.676-14.41,8.61a106.857,106.857,0,0,1-24.443,2.124,106.665,106.665,0,0,1-24.327-3.029C70.633,180.889,65.169,177.592,65.251,174.008Z" transform="translate(0.5)" stroke="#d6c77c" stroke-miterlimit="10" stroke-width="3" fill="url(#linear-gradient-50)"/><ellipse cx="103.842" cy="174.785" rx="12.869" ry="38.6" transform="translate(-72.289 275.455) rotate(-88.966)" stroke="#d6c77c" stroke-miterlimit="10" stroke-width="3" fill="url(#linear-gradient-51)"/><line x1="102.233" y1="186.18" x2="102.233" y2="201.899" stroke="#d6c77c" stroke-miterlimit="10" stroke-width="3" fill="url(#linear-gradient-52)"/><line x1="89.2" y1="186.18" x2="89.2" y2="201.899" stroke="#d6c77c" stroke-miterlimit="10" stroke-width="3" fill="url(#linear-gradient-53)"/><path d="M141.292,134.025l-.4,17.747c-.143,6.327,17.017,11.771,38.333,12.167s38.71-4.407,38.853-10.733l.4-17.748c-.081,3.584-5.69,6.676-14.409,8.61a106.928,106.928,0,0,1-24.444,2.123,106.6,106.6,0,0,1-24.326-3.029C146.675,140.906,141.211,137.608,141.292,134.025Z" transform="translate(0.5)" stroke="#d6c77c" stroke-miterlimit="10" stroke-width="3" fill="url(#linear-gradient-54)"/><ellipse cx="179.884" cy="134.802" rx="12.869" ry="38.6" transform="translate(42.357 312.223) rotate(-88.966)" stroke="#d6c77c" stroke-miterlimit="10" stroke-width="3" fill="url(#linear-gradient-55)"/><line x1="178.275" y1="148.269" x2="178.275" y2="163.989" stroke="#d6c77c" stroke-miterlimit="10" stroke-width="3" fill="url(#linear-gradient-56)"/><line x1="165.241" y1="146.196" x2="165.241" y2="161.916" stroke="#d6c77c" stroke-miterlimit="10" stroke-width="3" fill="url(#linear-gradient-57)"/></svg>