<svg width="1em" height="1em" id="Layer_1" data-name="Layer 1" xmlns="http://www.w3.org/2000/svg" xmlns:xlink="http://www.w3.org/1999/xlink" viewBox="0 0 34.87 36.69"><defs><linearGradient id="linear-gradient" x1="98.23" y1="6.71" x2="116" y2="6.71" gradientUnits="userSpaceOnUse"><stop offset="0" stop-color="#e99600"/><stop offset="1" stop-color="#03006f"/></linearGradient><linearGradient id="linear-gradient-2" x1="0.6" y1="23.19" x2="18.37" y2="23.19" xlink:href="#linear-gradient"/><linearGradient id="linear-gradient-3" x1="114.13" y1="9.21" x2="131.99" y2="9.21" xlink:href="#linear-gradient"/><linearGradient id="linear-gradient-4" x1="114.13" y1="5.6" x2="131.9" y2="5.6" gradientTransform="translate(0.14 -2.52) rotate(1.18)" xlink:href="#linear-gradient"/><linearGradient id="linear-gradient-5" x1="25.87" y1="30.68" x2="25.87" y2="30.68" xlink:href="#linear-gradient"/><linearGradient id="linear-gradient-6" x1="28.87" y1="30.68" x2="28.87" y2="30.68" xlink:href="#linear-gradient"/><linearGradient id="linear-gradient-7" x1="98.17" y1="1.93" x2="115.94" y2="1.93" xlink:href="#linear-gradient"/><linearGradient id="linear-gradient-8" x1="0.54" y1="18.41" x2="18.31" y2="18.41" xlink:href="#linear-gradient"/><linearGradient id="linear-gradient-9" x1="98.23" y1="-3.05" y2="-3.05" xlink:href="#linear-gradient"/><linearGradient id="linear-gradient-10" x1="0.6" y1="13.43" x2="18.37" y2="13.43" xlink:href="#linear-gradient"/><linearGradient id="linear-gradient-11" x1="98.17" y1="-8.03" x2="115.94" y2="-8.03" xlink:href="#linear-gradient"/><linearGradient id="linear-gradient-12" x1="0.54" y1="8.45" x2="18.31" y2="8.45" xlink:href="#linear-gradient"/><linearGradient id="linear-gradient-13" x1="6.68" y1="13.87" x2="6.68" y2="13.87" xlink:href="#linear-gradient"/><linearGradient id="linear-gradient-14" x1="8.63" y1="13.87" x2="8.63" y2="13.87" xlink:href="#linear-gradient"/><linearGradient id="linear-gradient-15" x1="114.23" y1="3.95" x2="132" y2="3.95" xlink:href="#linear-gradient"/><linearGradient id="linear-gradient-16" x1="16.6" y1="20.43" x2="34.37" y2="20.43" xlink:href="#linear-gradient"/><linearGradient id="linear-gradient-17" x1="114.17" y1="-1.03" x2="131.94" y2="-1.03" xlink:href="#linear-gradient"/><linearGradient id="linear-gradient-18" x1="16.54" y1="15.45" x2="34.31" y2="15.45" xlink:href="#linear-gradient"/><linearGradient id="linear-gradient-19" x1="24.68" y1="20.87" x2="24.68" y2="20.87" xlink:href="#linear-gradient"/><linearGradient id="linear-gradient-20" x1="26.63" y1="21.87" x2="26.63" y2="21.87" xlink:href="#linear-gradient"/><linearGradient id="linear-gradient-21" x1="113.4" y1="-0.17" x2="113.4" y2="-0.17" xlink:href="#linear-gradient"/><linearGradient id="linear-gradient-22" x1="113.4" y1="-4.71" x2="113.4" y2="-4.71" xlink:href="#linear-gradient"/><linearGradient id="linear-gradient-23" x1="13.82" y1="18.84" x2="13.87" y2="18.84" xlink:href="#linear-gradient"/><linearGradient id="linear-gradient-24" x1="15.42" y1="17.9" x2="15.42" y2="17.9" xlink:href="#linear-gradient"/><linearGradient id="linear-gradient-25" x1="6.87" y1="23.18" x2="6.87" y2="23.18" xlink:href="#linear-gradient"/><linearGradient id="linear-gradient-26" x1="8.87" y1="24.18" x2="8.87" y2="24.18" xlink:href="#linear-gradient"/><linearGradient id="linear-gradient-27" x1="107.17" y1="12.3" x2="124.94" y2="12.3" xlink:href="#linear-gradient"/><linearGradient id="linear-gradient-28" x1="9.54" y1="28.78" x2="27.31" y2="28.78" xlink:href="#linear-gradient"/><linearGradient id="linear-gradient-29" x1="12.87" y1="33.68" x2="12.87" y2="33.68" xlink:href="#linear-gradient"/><linearGradient id="linear-gradient-30" x1="15.87" y1="33.68" x2="15.87" y2="33.68" xlink:href="#linear-gradient"/><linearGradient id="linear-gradient-31" x1="107.13" y1="7.21" x2="124.99" y2="7.21" xlink:href="#linear-gradient"/><linearGradient id="linear-gradient-32" x1="107.13" y1="3.6" x2="124.9" y2="3.6" gradientTransform="translate(0.1 -2.38) rotate(1.18)" xlink:href="#linear-gradient"/><linearGradient id="linear-gradient-33" x1="18.87" y1="28.68" x2="18.87" y2="28.68" xlink:href="#linear-gradient"/><linearGradient id="linear-gradient-34" x1="21.87" y1="28.68" x2="21.87" y2="28.68" xlink:href="#linear-gradient"/><linearGradient id="linear-gradient-35" x1="98.13" y1="-12.79" x2="115.99" y2="-12.79" xlink:href="#linear-gradient"/><linearGradient id="linear-gradient-36" x1="98.13" y1="-16.4" x2="115.9" y2="-16.4" gradientTransform="translate(-0.31 -2.2) rotate(1.18)" xlink:href="#linear-gradient"/><linearGradient id="linear-gradient-37" x1="9.87" y1="8.68" x2="9.87" y2="8.68" xlink:href="#linear-gradient"/><linearGradient id="linear-gradient-38" x1="12.87" y1="8.68" x2="12.87" y2="8.68" xlink:href="#linear-gradient"/></defs><title>coinsgrad</title><path d="M116,3V7.51c0,1.61-4,2.92-8.89,2.92s-8.88-1.31-8.88-2.92V3c0,.91,1.27,1.72,3.27,2.26a22.35,22.35,0,0,0,5.61.65,22.38,22.38,0,0,0,5.62-.65C114.73,4.72,116,3.91,116,3Z" transform="translate(-97.63 20.18)" stroke="#fff" stroke-miterlimit="10" fill="url(#linear-gradient)"/><ellipse cx="9.48" cy="23.19" rx="8.89" ry="3.27" stroke="#fff" stroke-miterlimit="10" fill="url(#linear-gradient-2)"/><path d="M131.9,5.4,132,9.92c0,1.61-3.92,3-8.82,3.09s-8.91-1.12-9-2.73l-.09-4.51c0,.91,1.31,1.7,3.32,2.19a22.41,22.41,0,0,0,5.62.54,22.19,22.19,0,0,0,5.6-.77C130.66,7.15,131.92,6.31,131.9,5.4Z" transform="translate(-97.63 20.18)" stroke="#fff" stroke-miterlimit="10" fill="url(#linear-gradient-3)"/><ellipse cx="123.01" cy="5.6" rx="8.89" ry="3.27" transform="translate(-97.72 22.7) rotate(-1.18)" stroke="#fff" stroke-miterlimit="10" fill="url(#linear-gradient-4)"/><line x1="25.87" y1="28.68" x2="25.87" y2="32.68" stroke="#fff" stroke-miterlimit="10" fill="url(#linear-gradient-5)"/><line x1="28.87" y1="28.68" x2="28.87" y2="32.68" stroke="#fff" stroke-miterlimit="10" fill="url(#linear-gradient-6)"/><path d="M115.94-1.78V2.73c0,1.61-4,2.92-8.88,2.92s-8.89-1.31-8.89-2.92V-1.78c0,.91,1.28,1.72,3.27,2.25a22.34,22.34,0,0,0,5.62.66,22.26,22.26,0,0,0,5.61-.66C114.67-.06,115.94-.87,115.94-1.78Z" transform="translate(-97.63 20.18)" stroke="#fff" stroke-miterlimit="10" fill="url(#linear-gradient-7)"/><ellipse cx="9.43" cy="18.41" rx="8.89" ry="3.27" stroke="#fff" stroke-miterlimit="10" fill="url(#linear-gradient-8)"/><path d="M116-6.76v4.51c0,1.61-4,2.92-8.89,2.92S98.23-.64,98.23-2.25V-6.76c0,.91,1.27,1.72,3.27,2.26a22.35,22.35,0,0,0,5.61.65,22.38,22.38,0,0,0,5.62-.65C114.73-5,116-5.85,116-6.76Z" transform="translate(-97.63 20.18)" stroke="#fff" stroke-miterlimit="10" fill="url(#linear-gradient-9)"/><ellipse cx="9.48" cy="13.43" rx="8.89" ry="3.27" stroke="#fff" stroke-miterlimit="10" fill="url(#linear-gradient-10)"/><path d="M115.94-11.74v4.52c0,1.61-4,2.91-8.88,2.91s-8.89-1.3-8.89-2.91v-4.52c0,.91,1.28,1.72,3.27,2.26a22.38,22.38,0,0,0,5.62.65,22.29,22.29,0,0,0,5.61-.65C114.67-10,115.94-10.83,115.94-11.74Z" transform="translate(-97.63 20.18)" stroke="#fff" stroke-miterlimit="10" fill="url(#linear-gradient-11)"/><ellipse cx="9.43" cy="8.45" rx="8.89" ry="3.27" stroke="#fff" stroke-miterlimit="10" fill="url(#linear-gradient-12)"/><line x1="6.68" y1="11.92" x2="6.68" y2="15.81" stroke="#fff" stroke-miterlimit="10" fill="url(#linear-gradient-13)"/><line x1="8.63" y1="11.92" x2="8.63" y2="15.81" stroke="#fff" stroke-miterlimit="10" fill="url(#linear-gradient-14)"/><path d="M132,.24V4.75c0,1.61-4,2.92-8.89,2.92s-8.88-1.31-8.88-2.92V.24c0,.91,1.27,1.72,3.27,2.26a22.35,22.35,0,0,0,5.61.65,22.38,22.38,0,0,0,5.62-.65C130.73,2,132,1.15,132,.24Z" transform="translate(-97.63 20.18)" stroke="#fff" stroke-miterlimit="10" fill="url(#linear-gradient-15)"/><ellipse cx="25.48" cy="20.43" rx="8.89" ry="3.27" stroke="#fff" stroke-miterlimit="10" fill="url(#linear-gradient-16)"/><path d="M131.94-4.74V-.22c0,1.61-4,2.91-8.88,2.91s-8.89-1.3-8.89-2.91V-4.74c0,.91,1.28,1.72,3.27,2.26a22.38,22.38,0,0,0,5.62.65,22.29,22.29,0,0,0,5.61-.65C130.67-3,131.94-3.83,131.94-4.74Z" transform="translate(-97.63 20.18)" stroke="#fff" stroke-miterlimit="10" fill="url(#linear-gradient-17)"/><ellipse cx="25.43" cy="15.45" rx="8.89" ry="3.27" stroke="#fff" stroke-miterlimit="10" fill="url(#linear-gradient-18)"/><line x1="24.68" y1="18.92" x2="24.68" y2="22.81" stroke="#fff" stroke-miterlimit="10" fill="url(#linear-gradient-19)"/><line x1="26.63" y1="19.92" x2="26.63" y2="23.81" stroke="#fff" stroke-miterlimit="10" fill="url(#linear-gradient-20)"/><path d="M113.4-.17" transform="translate(-97.63 20.18)" stroke="#fff" stroke-miterlimit="10" fill="url(#linear-gradient-21)"/><path d="M113.4-4.71" transform="translate(-97.63 20.18)" stroke="#fff" stroke-miterlimit="10" fill="url(#linear-gradient-22)"/><line x1="13.87" y1="16.68" x2="13.82" y2="21.01" stroke="#fff" stroke-miterlimit="10" fill="url(#linear-gradient-23)"/><line x1="15.42" y1="16.11" x2="15.42" y2="19.68" stroke="#fff" stroke-miterlimit="10" fill="url(#linear-gradient-24)"/><line x1="6.87" y1="20.68" x2="6.87" y2="25.68" stroke="#fff" stroke-miterlimit="10" fill="url(#linear-gradient-25)"/><line x1="8.87" y1="21.68" x2="8.87" y2="26.68" stroke="#fff" stroke-miterlimit="10" fill="url(#linear-gradient-26)"/><path d="M124.94,8.58V13.1c0,1.61-4,2.92-8.88,2.92s-8.89-1.31-8.89-2.92V8.58c0,.92,1.28,1.73,3.27,2.26a22.34,22.34,0,0,0,5.62.66,22.26,22.26,0,0,0,5.61-.66C123.67,10.31,124.94,9.5,124.94,8.58Z" transform="translate(-97.63 20.18)" stroke="#fff" stroke-miterlimit="10" fill="url(#linear-gradient-27)"/><ellipse cx="18.43" cy="28.78" rx="8.89" ry="3.27" stroke="#fff" stroke-miterlimit="10" fill="url(#linear-gradient-28)"/><line x1="12.87" y1="31.68" x2="12.87" y2="35.68" stroke="#fff" stroke-miterlimit="10" fill="url(#linear-gradient-29)"/><line x1="15.87" y1="31.68" x2="15.87" y2="35.68" stroke="#fff" stroke-miterlimit="10" fill="url(#linear-gradient-30)"/><path d="M124.9,3.4,125,7.92c0,1.61-3.92,3-8.82,3.09s-8.91-1.12-9-2.73l-.09-4.51c0,.91,1.31,1.7,3.32,2.19a22.41,22.41,0,0,0,5.62.54,22.19,22.19,0,0,0,5.6-.77C123.66,5.15,124.92,4.31,124.9,3.4Z" transform="translate(-97.63 20.18)" stroke="#fff" stroke-miterlimit="10" fill="url(#linear-gradient-31)"/><ellipse cx="116.01" cy="3.6" rx="8.89" ry="3.27" transform="translate(-97.68 22.56) rotate(-1.18)" stroke="#fff" stroke-miterlimit="10" fill="url(#linear-gradient-32)"/><line x1="18.87" y1="26.68" x2="18.87" y2="30.68" stroke="#fff" stroke-miterlimit="10" fill="url(#linear-gradient-33)"/><line x1="21.87" y1="26.68" x2="21.87" y2="30.68" stroke="#fff" stroke-miterlimit="10" fill="url(#linear-gradient-34)"/><path d="M115.9-16.6l.09,4.52c0,1.61-3.92,3-8.82,3.09s-8.91-1.12-9-2.73l-.09-4.51c0,.91,1.31,1.7,3.32,2.19a22.41,22.41,0,0,0,5.62.54,22.19,22.19,0,0,0,5.6-.77C114.66-14.85,115.92-15.69,115.9-16.6Z" transform="translate(-97.63 20.18)" stroke="#fff" stroke-miterlimit="10" fill="url(#linear-gradient-35)"/><ellipse cx="107.01" cy="-16.4" rx="8.89" ry="3.27" transform="translate(-97.27 22.37) rotate(-1.18)" stroke="#fff" stroke-miterlimit="10" fill="url(#linear-gradient-36)"/><line x1="9.87" y1="6.68" x2="9.87" y2="10.68" stroke="#fff" stroke-miterlimit="10" fill="url(#linear-gradient-37)"/><line x1="12.87" y1="6.68" x2="12.87" y2="10.68" stroke="#fff" stroke-miterlimit="10" fill="url(#linear-gradient-38)"/></svg>