<svg version="1.1" height="16" width="16" id="Layer_1" xmlns="http://www.w3.org/2000/svg" xmlns:xlink="http://www.w3.org/1999/xlink" x="0px" y="0px"
	 viewBox="0 0 100 100" style="enable-background:new 0 0 100 100;" xml:space="preserve">
<style type="text/css">
	.st0{fill:#F43D3D;}
	.st1{fill:#D15460;}
	.st2{fill:#CC6D9A;}
	.st3{fill:#AA5280;}
	.st4{fill:#994195;}
	.st5{fill-rule:evenodd;clip-rule:evenodd;fill:#F25C5C;}
	.st6{fill-rule:evenodd;clip-rule:evenodd;fill:#AA68AA;}
	.st7{fill-rule:evenodd;clip-rule:evenodd;fill:#8E2584;}
</style>
<g>
	<path class="st0" d="M53.6,1.2l-2.2,47.4L17.6,12.7C26.2,5.4,37.3,1,49.5,1C50.9,1,52.3,1.1,53.6,1.2z"/>
</g>
<g>
	<path class="st1" d="M98.9,47.9l-47.6,0.7l32.1-34.1C92.4,23,98.2,34.7,98.9,47.9z"/>
</g>
<g>
	<path class="st2" d="M99,50.5c0,13.3-5.2,25.3-13.7,34.2L51.4,48.6l47.6-0.7C99,48.8,99,49.6,99,50.5z"/>
</g>
<g>
	<path class="st3" d="M85.3,84.7c-9,9.4-21.7,15.3-35.8,15.3c-0.2,0-0.4,0-0.5,0l2.4-51.3L85.3,84.7z"/>
</g>
<path class="st4" d="M51.4,48.6l-35.7,38C6,77.6,0,64.7,0,50.5c0-0.4,0-0.7,0-1.1L51.4,48.6z"/>
<g>
	<path class="st5" d="M83.4,14.5L51.4,48.6l2.2-47.4C65.1,2.1,75.5,7,83.4,14.5z"/>
</g>
<g>
	<path class="st6" d="M51.4,48.7L48.9,100C36,99.8,24.3,94.8,15.6,86.6L51.4,48.7z"/>
</g>
<g>
	<path class="st7" d="M51.4,48.6L0,49.4c0.3-14.8,7.1-27.9,17.6-36.7L51.4,48.6z"/>
</g>
</svg>
