<?xml version="1.0" encoding="utf-8"?>
<!-- Generator: Adobe Illustrator 22.0.0, SVG Export Plug-In . SVG Version: 6.00 Build 0)  -->
<svg version="1.1" id="Layer_1" xmlns="http://www.w3.org/2000/svg" xmlns:xlink="http://www.w3.org/1999/xlink" x="0px" y="0px"
	 viewBox="0 0 100 100" style="enable-background:new 0 0 100 100;" xml:space="preserve">
<style type="text/css">
	.st0{fill:#1E1E1E;}
	.st1{fill:#2A2A38;}
	.st2{fill:#E0C0A6;}
	.st3{fill:#DDB38A;}
</style>
<g>
	<path class="st0" d="M5.7,52.2l-1.4-0.7c-2.4-1.1-3.4-4-2.2-6.3l12.8-26.7c1.1-2.4,4-3.4,6.3-2.2l1.4,0.7c2.4,1.1,3.4,4,2.2,6.3
		L12,50C10.9,52.4,8,53.4,5.7,52.2z"/>
	<path class="st1" d="M96.2,50l-1.4,0.7c-2.4,1.1-5.2,0.1-6.3-2.2L75.6,21.8c-1.1-2.4-0.1-5.2,2.2-6.3l1.4-0.7
		c2.4-1.1,5.2-0.1,6.3,2.2l12.8,26.7C99.6,46,98.6,48.8,96.2,50z"/>
	<path class="st2" d="M50.4,34.1c-1.6,0.4-3.4,1.6-4.8,4.6C45.7,38.5,47.1,34.2,50.4,34.1z"/>
	<path class="st2" d="M74.1,25.2L74,25C74,25,74.2,25.1,74.1,25.2z"/>
	<polygon class="st0" points="27.1,24.9 43,24.9 36.2,29 25.7,29 	"/>
	<path class="st3" d="M51.1,31.6h8.8c0,0,6.9-0.6,23.8,24.5"/>
	<path class="st3" d="M78,66.8C78,66.8,78,66.8,78,66.8C78,66.8,78,66.7,78,66.8L78,66.8z"/>
	<path class="st3" d="M78.1,69.8c-0.4-0.1-0.8-0.3-1.2-0.4L78.1,69.8z"/>
	<path class="st3" d="M80.1,69.8c-0.3,0-0.5,0-0.8,0c0,0,0,0,0,0L80.1,69.8z"/>
	<path class="st3" d="M78.1,69.8c-0.4-0.1-0.8-0.3-1.2-0.4L78.1,69.8z"/>
	<path class="st0" d="M86,59.1c-0.2-0.5-0.4-0.9-0.6-1.4l0,0l-0.1-0.3l-3.3-2.7l0,0l-0.1,0.1L55.1,32.4l-2,2.4l29.8,25.1
		c0,0,0,0.1,0.1,0.1c1,2.6,1.1,4.5,0.2,5.6c-1.1,1.3-3.7,1.4-5.1,1.2h0c0,0,0,0,0,0c0,0,0,0,0,0L74.1,64L58.4,52.9
		c-0.7-0.5-1.6-0.3-2,0.4l-0.1,0.2c-0.5,0.7-0.3,1.6,0.4,2.1l14.6,10.3l3.9,2.8c0.1,0,0.1,0.1,0.2,0.1c1,2.2,1.1,3.8,0.2,4.7
		c-0.8,0.7-2.2,1-3.5,1.1c-0.1-0.1-0.2-0.2-0.3-0.3l-1.4-1L67.2,71l-12.8-8.9c-0.6-0.4-1.5-0.3-1.9,0.3l-0.2,0.3
		c-0.4,0.6-0.3,1.5,0.3,1.9l15.2,10.6v0c0.2,2.5-0.4,4.1-1.6,4.6c-0.7,0.3-1.5,0.2-2.4,0h0l-3.7-2.6L55,73.6L49.8,70
		c-0.6-0.4-1.5-0.3-1.9,0.3l-0.2,0.3c-0.4,0.6-0.3,1.5,0.3,1.9l8.9,6.2c-0.1,1.7-0.6,2.9-1.6,3.2c-1.5,0.6-4.1-0.4-5.5-1.1l0,0
		c-0.2-0.1-0.5-0.2-0.6-0.3l-1.4,1.9l1.1,0.8h0c0.3,0.1,0.6,0.3,1,0.4c0.3,0.1,0.6,0.3,1,0.4c1.9,0.7,4.3,1.2,6.3,0.4
		c1.4-0.6,2.4-1.7,2.8-3.3c0-0.1,0-0.2,0.1-0.3l1.1,0.7c0.2,0.1,0.5,0.2,0.7,0.3c1.3,0.5,2.8,0.8,4.3,0.8c0.7,0,1.4-0.1,2-0.4
		c1.9-0.7,3-2.5,3.1-5.2c0,0,0.1,0,0.1,0c0.3,0,0.7,0,1,0c2-0.1,4.4-0.6,6-2.1c1.3-1.3,1.7-3,1.1-5.2c0,0,0,0,0,0l0.8,0
		c1.9-0.1,4.1-0.7,5.6-2.4C87.3,65.5,87.4,62.7,86,59.1z M76.9,69.4l1.2,0.4C77.7,69.6,77.3,69.5,76.9,69.4z"/>
	<path class="st1" d="M87,53.1l-2.3,4.7L58.9,37.1c-1.2-1.6-4.1-0.6-4.1-0.6c-1.8-1.7-3.4-2.4-4.7-2.3c-3.2,0.1-4.7,4.4-4.8,4.6
		c0,0,0,0,0,0c0,0,0,0,0,0c-0.6,1.3-1.1,2.9-1.4,4.8c0,0-1.3,6.3-9.6,6.8s-3.7-4.6-3.7-4.6l1.5-3.8v-7.8l2.3-4.1
		c0,0,13-11.6,27.3-7.7c10,2.7,11.9,2.9,12.1,2.7L87,53.1z"/>
	<path class="st1" d="M16.4,68.2l-1.1-1c-1.8-1.6-1.9-4.4-0.3-6.2l5.6-6.3c1.6-1.8,4.4-1.9,6.2-0.3l1.1,1c1.8,1.6,1.9,4.4,0.3,6.2
		l-5.6,6.3C21,69.6,18.2,69.8,16.4,68.2z"/>
	<path class="st1" d="M24,75.1l-1.1-1c-1.8-1.6-2-4.4-0.3-6.2l4.1-4.5c1.6-1.8,4.4-2,6.2-0.3l1.1,1c1.8,1.6,2,4.4,0.3,6.2l-4.1,4.5
		C28.6,76.6,25.8,76.7,24,75.1z"/>
	<path class="st1" d="M32.2,81l-1-0.9c-1.7-1.5-1.8-4.2-0.3-5.9l3.9-4.3c1.5-1.7,4.2-1.8,5.9-0.3l1,0.9c1.7,1.5,1.8,4.2,0.3,5.9
		l-3.9,4.3C36.6,82.4,33.9,82.5,32.2,81z"/>
	<path class="st1" d="M41.9,83.8L41,83c-1.5-1.4-1.6-3.7-0.3-5.2l2.5-2.8c1.4-1.5,3.7-1.6,5.2-0.3l0.9,0.8c1.5,1.4,1.6,3.7,0.3,5.2
		l-2.5,2.8C45.7,85,43.4,85.2,41.9,83.8z"/>
	<polygon class="st0" points="15.6,47.3 14.3,52 18.6,57.2 21,54.6 	"/>
</g>
</svg>
