<svg id="Layer_1" data-name="Layer 1" xmlns="http://www.w3.org/2000/svg" xmlns:xlink="http://www.w3.org/1999/xlink" viewBox="0 0 908.06 847.52"><defs><linearGradient id="linear-gradient" x1="-327.27" y1="-252.6" x2="528.76" y2="283.71" gradientUnits="userSpaceOnUse"><stop offset="0" stop-color="#ff7e1f"/><stop offset="0.05" stop-color="#eb7422"/><stop offset="0.26" stop-color="#a5522f"/><stop offset="0.45" stop-color="#6a3439"/><stop offset="0.63" stop-color="#3c1e41"/><stop offset="0.78" stop-color="#1b0e47"/><stop offset="0.91" stop-color="#07044b"/><stop offset="1" stop-color="#00004c"/></linearGradient></defs><title>justlogo22</title><path d="M603,45.77c0,234.08-181.61,423.76-405.73,423.76a381.92,381.92,0,0,1-48.3-3,381.81,381.81,0,0,1-48.3,3c-224.12,0-405.73-189.68-405.73-423.76S-123.45-378,100.67-378a381.81,381.81,0,0,1,48.3,3,381.92,381.92,0,0,1,48.3-3C421.39-378,603-188.31,603,45.77Z" transform="translate(305.06 377.99)" fill="url(#linear-gradient)"/><path d="M228-185.12c-40-7.07-118.32-19.79-136.69-19.79q-115.62,0-115.61,127.77v35.75H-66.18V14.89h41.92V362.07H48.92V14.89l114.55-1.11c10.65,8.39,27-8.58,27-20.53v-13c0-11.95-16.38-28.38-27-17.44L48.92-41.39v-35q0-36.12,13-50.76t39.9-14.64c10.89,0,76.37,10.88,117.19,17.84,16.53,2.82,31.53-10.28,31.53-27.48v-6.25A27.65,27.65,0,0,0,228-185.12Zm-70.76,170c.83-6.9,6.16-11.84,11.9-11s9.73,7,8.9,13.92S171.93-.36,166.19-1.16,156.46-8.18,157.28-15.08Z" transform="translate(305.06 377.99)" fill="#fff"/><path d="M250.17,21.58,132.09,75.48,54.58,330.8a24.49,24.49,0,0,0,14.6,29.61l132.19,51.4a22.14,22.14,0,0,0,29.56-14.14l82.65-272.25ZM236.43,78a17,17,0,0,1-10.66-20.74,15.36,15.36,0,0,1,20-10A17,17,0,0,1,256.42,68,15.36,15.36,0,0,1,236.43,78Z" transform="translate(305.06 377.99)" fill="#f76c41" stroke="#fff" stroke-miterlimit="10" stroke-width="8"/><path d="M171-9c0,38.14,28.18,69,63,69" transform="translate(305.06 377.99)" fill="none" stroke="#fff" stroke-linecap="round" stroke-miterlimit="10" stroke-width="11"/><path d="M79.5,306l18.8-3.13a8.12,8.12,0,0,0,4.35-1.93,11.12,11.12,0,0,0,3-5l54.42-160.52a9.26,9.26,0,0,0,.44-5.65,7.16,7.16,0,0,0-2.35-3.61l-13.53-12.43,4-11.75,75,21.56q17.85,5.14,28,12.4t14.45,15.88a35.43,35.43,0,0,1,3.9,17.95,67.75,67.75,0,0,1-3.56,18.48,73.69,73.69,0,0,1-8.83,18.06,61.06,61.06,0,0,1-12.14,13.26,50.17,50.17,0,0,1-14.88,8.28,59.48,59.48,0,0,1-17.13,3.28l-.31.92A55,55,0,0,1,230,242.18a43.39,43.39,0,0,1,10.8,14.66,46.92,46.92,0,0,1,3.94,18.55A63.81,63.81,0,0,1,241,297a88.54,88.54,0,0,1-10,21.06,63.24,63.24,0,0,1-12.77,14.25,51.59,51.59,0,0,1-14.86,8.37,64,64,0,0,1-16.23,3.54,75.48,75.48,0,0,1-16.77-.47,120.79,120.79,0,0,1-16.67-3.54L75.51,317.76ZM160,317.6q14.81,4.26,25-2.26t16.85-26.06a88,88,0,0,0,4.63-19.85,31.78,31.78,0,0,0-1.66-14.54,22,22,0,0,0-8.14-10.13,50,50,0,0,0-14.83-6.61l-16.39-4.72L139,311.56Zm22.12-102.33a45.62,45.62,0,0,0,15.63,2.07,25.23,25.23,0,0,0,11.93-3.77,29,29,0,0,0,8.82-8.94,61.05,61.05,0,0,0,6.33-13.58q7-20.6,3.24-31.73T209.71,144L197,140.36l-24.47,72.17Z" transform="translate(305.06 377.99)" stroke="#fff" stroke-miterlimit="10" stroke-width="4"/></svg>