<svg id="Layer_1" data-name="Layer 1" xmlns="http://www.w3.org/2000/svg" viewBox="0 0 299.545 286.82"><title>lipia</title><polygon points="117.545 121.91 173.385 96.219 167.545 148.91 135.545 173.91 117.545 121.91" fill="#b58c6d"/><polygon points="269.24 11.883 173.867 0 160.415 133.852 155.299 174.664 248.254 192.438 269.24 11.883" fill="#f2dff7"/><ellipse cx="294.646" cy="96.499" rx="7.543" ry="5.782" transform="translate(-128.355 -23.044) rotate(-12.497)" fill="#f4b9b8"/><ellipse cx="261.397" cy="18.345" rx="7.943" ry="8.472" fill="#f4b9b8"/><ellipse cx="242.968" cy="178.493" rx="9.615" ry="10.255" fill="#f4b9b8"/><ellipse cx="326.814" cy="181.864" rx="28.703" ry="44.783" transform="translate(-8.842 394.356) rotate(-82.836)" fill="#f2dff7" stroke="#eab8b7" stroke-miterlimit="10" stroke-width="6"/><polygon points="268.741 18.089 173.385 7.037 174.075 0.259 269.432 11.311 268.741 18.089" fill="#f4b9b8"/><polygon points="178.891 1.196 163.858 148.747 158.039 148.073 173.073 0.522 178.891 1.196" fill="#f4b9b8"/><polygon points="250.817 192.653 148.643 173.887 149.778 166.856 251.952 185.623 250.817 192.653" fill="#f4b9b8"/><ellipse cx="327.378" cy="181.83" rx="20.409" ry="34.191" transform="translate(-7.713 395.326) rotate(-82.95)" fill="#f4b9b8"/><polygon points="269.512 11.196 251.046 192.435 244.195 191.641 262.661 10.402 269.512 11.196" fill="#f4b9b8"/><line x1="175.418" y1="4.235" x2="158.738" y2="174.921" fill="none" stroke="#f2dff7" stroke-miterlimit="10" stroke-width="2"/><line x1="249.317" y1="188.614" x2="159.27" y2="173.009" fill="none" stroke="#f2dff7" stroke-miterlimit="10" stroke-width="2"/><path d="M359.242,141.258h0a3.972,3.972,0,0,1-3.334-4.423l2.128-20.886a3.84,3.84,0,0,1,4.147-3.556h0a3.97,3.97,0,0,1,3.334,4.423L363.389,137.7A3.841,3.841,0,0,1,359.242,141.258Z" transform="translate(-114.455 -89.09)" fill="#f4b9b8"/><path d="M344.828,259.856h0a3.971,3.971,0,0,1-3.334-4.423l2.041-20.035a3.841,3.841,0,0,1,4.147-3.556h0a3.97,3.97,0,0,1,3.334,4.423L348.975,256.3A3.841,3.841,0,0,1,344.828,259.856Z" transform="translate(-114.455 -89.09)" fill="#f4b9b8"/><ellipse cx="326.05" cy="242.261" rx="10.555" ry="12.434" transform="translate(-100.558 413.093) rotate(-76.396)" fill="#f4b9b8"/><ellipse cx="341.833" cy="122.459" rx="10.627" ry="12.463" transform="translate(75.756 363.303) rotate(-85.028)" fill="#f4b9b8"/><line x1="265.415" y1="14.416" x2="248.494" y2="188.77" fill="none" stroke="#f2dff7" stroke-miterlimit="10" stroke-width="2"/><line x1="266.238" y1="14.261" x2="175.418" y2="4.235" fill="none" stroke="#f2dff7" stroke-miterlimit="10" stroke-width="2"/><polygon points="288.407 19.74 193.945 1.356 172.47 134.012 164.911 174.39 256.605 198.487 288.407 19.74" fill="#f2dff7"/><ellipse cx="314.265" cy="98.273" rx="7.532" ry="5.791" transform="translate(-125.029 -44.664) rotate(-7.953)" fill="#f4b9b8"/><ellipse cx="280.191" cy="25.651" rx="7.943" ry="8.472" fill="#f4b9b8"/><ellipse cx="252.169" cy="184.209" rx="9.615" ry="10.255" fill="#f4b9b8"/><ellipse cx="341.233" cy="185.662" rx="28.665" ry="44.842" transform="translate(-22.595 394.437) rotate(-78.614)" fill="#f2dff7" stroke="#eab8b7" stroke-miterlimit="10" stroke-width="6"/><polygon points="287.536 25.898 193.041 8.346 194.138 1.629 288.633 19.182 287.536 25.898" fill="#f4b9b8"/><polygon points="198.887 2.894 175.01 149.113 169.244 148.042 193.121 1.823 198.887 2.894" fill="#f4b9b8"/><polygon points="259.15 198.877 158.315 173.159 159.87 166.221 260.705 191.939 259.15 198.877" fill="#f4b9b8"/><ellipse cx="341.798" cy="185.667" rx="20.383" ry="34.235" transform="translate(-21.222 395.766) rotate(-78.791)" fill="#f4b9b8"/><polygon points="288.72 19.072 259.392 198.675 252.602 197.414 281.931 17.811 288.72 19.072" fill="#f4b9b8"/><line x1="195.239" y1="5.689" x2="168.327" y2="174.882" fill="none" stroke="#f2dff7" stroke-miterlimit="10" stroke-width="2"/><line x1="257.896" y1="194.744" x2="168.973" y2="173.01" fill="none" stroke="#f2dff7" stroke-miterlimit="10" stroke-width="2"/><path d="M376.037,147.359h0a4.009,4.009,0,0,1-3.061-4.642l3.38-20.7a3.8,3.8,0,0,1,4.352-3.265h0a4.01,4.01,0,0,1,3.061,4.642l-3.38,20.7A3.8,3.8,0,0,1,376.037,147.359Z" transform="translate(-114.455 -89.09)" fill="#f4b9b8"/><path d="M354.52,264.726h0a4.009,4.009,0,0,1-3.062-4.642L354.7,240.23a3.805,3.805,0,0,1,4.353-3.265h0a4.01,4.01,0,0,1,3.061,4.642l-3.242,19.854A3.8,3.8,0,0,1,354.52,264.726Z" transform="translate(-114.455 -89.09)" fill="#f4b9b8"/><ellipse cx="336.838" cy="245.883" rx="10.531" ry="12.462" transform="translate(-117.709 398.154) rotate(-71.492)" fill="#f4b9b8"/><ellipse cx="359.794" cy="127.407" rx="10.615" ry="12.477" transform="translate(56.839 370.209) rotate(-79.905)" fill="#f4b9b8"/><line x1="284.438" y1="22.006" x2="257.065" y2="194.843" fill="none" stroke="#f2dff7" stroke-miterlimit="10" stroke-width="2"/><line x1="285.269" y1="21.908" x2="195.239" y2="5.689" fill="none" stroke="#f2dff7" stroke-miterlimit="10" stroke-width="2"/><path d="M311.261,268.725l-7.844,33.607s-20.9.836-21.739-8.361a166.123,166.123,0,0,1,0-21.546l12.541-23.6L311.261,265.2" transform="translate(-114.455 -89.09)" fill="#ddb38a"/><polygon points="299.165 35.931 207.192 6.503 172.075 135.806 160.37 175.043 248.998 209.822 299.165 35.931" fill="#f2dff7"/><ellipse cx="212.209" cy="14.974" rx="7.525" ry="5.796" fill="#f4b9b8"/><ellipse cx="290.386" cy="40.835" rx="7.943" ry="8.472" fill="#f4b9b8"/><ellipse cx="246.072" cy="195.108" rx="9.615" ry="10.255" fill="#f4b9b8"/><ellipse cx="344.392" cy="194.101" rx="28.563" ry="45.003" transform="translate(-63.851 369.529) rotate(-71.405)" fill="#f2dff7" stroke="#eab8b7" stroke-miterlimit="10" stroke-width="6"/><polygon points="297.659 41.948 205.568 13.343 207.355 6.797 299.447 35.402 297.659 41.948" fill="#f4b9b8"/><polygon points="211.945 8.614 173.032 151.114 167.413 149.368 206.325 6.869 211.945 8.614" fill="#f4b9b8"/><polygon points="251.487 210.51 153.942 173.041 156.209 166.329 253.753 203.798 251.487 210.51" fill="#f4b9b8"/><ellipse cx="344.953" cy="194.173" rx="20.311" ry="34.356" transform="translate(-62.271 371.507) rotate(-71.678)" fill="#f4b9b8"/><polygon points="299.545 35.304 251.749 210.338 245.132 208.283 292.928 33.249 299.545 35.304" fill="#f4b9b8"/><line x1="208.028" y1="10.962" x2="163.714" y2="175.935" fill="none" stroke="#f2dff7" stroke-miterlimit="10" stroke-width="2"/><line x1="251.67" y1="196.52" x2="165.55" y2="166.42" fill="none" stroke="#f2dff7" stroke-miterlimit="10" stroke-width="2"/><path d="M256.594,242.132s37.625-35.117,46.823-32.608,17.558-1.673,16.722,25.083l-61.873,58.528c.356,2.546-9.256,16.57-22.575,25.919-19.608,13.765-44.314,10.034-44.314,10.034l-40.133,13.378-7.525-73.578,33.444-18.395,44.314-60.2,60.2-35.117-5.853,47.659L253.25,216.212Z" transform="translate(-114.455 -89.09)" fill="#ddb38a"/><polygon points="29.264 174.781 38.461 261.737 0 286.82 11.706 184.814 29.264 174.781" fill="#5a15bc"/><path d="M383.959,160.144h0a4.072,4.072,0,0,1-2.561-4.975L386.907,135a3.744,3.744,0,0,1,4.664-2.731h0a4.07,4.07,0,0,1,2.56,4.975l-5.508,20.171A3.744,3.744,0,0,1,383.959,160.144Z" transform="translate(-114.455 -89.09)" fill="#f4b9b8"/><rect x="350.318" y="239.936" width="7.525" height="26.421" rx="3.763" ry="3.763" transform="translate(-29.545 -178.001) rotate(16.238)" fill="#f4b9b8"/><ellipse cx="334.771" cy="246.313" rx="9.922" ry="12.402" transform="translate(-124.863 388.723) rotate(-70.193)" fill="#f4b9b8"/><ellipse cx="368.888" cy="138.397" rx="10.579" ry="12.52" transform="translate(5.286 354.524) rotate(-71.34)" fill="#f4b9b8"/><line x1="294.984" y1="37.714" x2="249.834" y2="206.255" fill="none" stroke="#f2dff7" stroke-miterlimit="10" stroke-width="2"/><line x1="295.82" y1="37.714" x2="208.028" y2="10.962" fill="none" stroke="#f2dff7" stroke-miterlimit="10" stroke-width="2"/><path d="M304.253,209.524s-20.662,15.44-16.6,21.516,9.077,15.273,16.6,10.256,15.934-15.165,15.934-15.165S320.139,212.868,304.253,209.524Z" transform="translate(-114.455 -89.09)" fill="#f7f2ed"/><path d="M256.882,241.082s-14.28,6.706-19.128,12.019-18.7,15.439-18.564,21.35" transform="translate(-114.455 -89.09)" fill="none" stroke="#ad917b" stroke-miterlimit="10"/></svg>