<svg id="Layer_1" data-name="Layer 1" xmlns="http://www.w3.org/2000/svg" xmlns:xlink="http://www.w3.org/1999/xlink" viewBox="0 0 5028.3 1279.95"><defs><linearGradient id="linear-gradient" x1="-718.33" y1="-474.12" x2="563.81" y2="329.15" gradientUnits="userSpaceOnUse"><stop offset="0" stop-color="#ff7e1f"/><stop offset="0.05" stop-color="#eb7422"/><stop offset="0.26" stop-color="#a5522f"/><stop offset="0.45" stop-color="#6a3439"/><stop offset="0.63" stop-color="#3c1e41"/><stop offset="0.78" stop-color="#1b0e47"/><stop offset="0.91" stop-color="#07044b"/><stop offset="1" stop-color="#00004c"/></linearGradient></defs><title>logo</title><path d="M675-27.23c0,350.59-272,634.69-607.69,634.69A573,573,0,0,1-5,602.93a573,573,0,0,1-72.34,4.53c-335.68,0-607.69-284.1-607.69-634.69S-413-661.92-77.37-661.92A573,573,0,0,1-5-657.39a573,573,0,0,1,72.34-4.53C403-661.92,675-377.82,675-27.23Z" transform="translate(685.06 661.92)" fill="url(#linear-gradient)"/><path d="M113.4-373C53.54-383.64-63.82-402.68-91.34-402.68q-173.16,0-173.15,191.37v53.53h-62.79v84.3h62.79v520h109.6v-520L16.68-75.15c16,12.57,40.49-12.84,40.49-30.74v-19.48c0-17.9-24.54-42.5-40.49-26.12l-171.57-6.29v-52.39q0-54.11,19.53-76t59.76-21.93c16.32,0,114.39,16.3,175.53,26.72,24.77,4.23,47.22-15.39,47.22-41.16v-9.36C147.15-352.25,132.91-369.59,113.4-373ZM7.42-118.37c1.24-10.33,9.22-17.74,17.82-16.55s14.57,10.52,13.33,20.85S29.36-96.33,20.75-97.51,6.18-108,7.42-118.37Z" transform="translate(685.06 661.92)" fill="#fff"/><path d="M146.54-63.46-30.32,17.27-146.41,399.68c-5.43,17.88,4.24,37.49,21.87,44.34l198,77C92,528.2,112,518.6,117.73,499.83L241.52,92.07ZM126,21A25.45,25.45,0,0,1,110-10,23,23,0,0,1,140-25a25.46,25.46,0,0,1,16,31.06A23,23,0,0,1,126,21Z" transform="translate(685.06 661.92)" fill="#f76c41" stroke="#fff" stroke-miterlimit="10" stroke-width="8"/><path d="M28-109.26C28-52.14,70.17-5.92,122.32-5.92" transform="translate(685.06 661.92)" fill="none" stroke="#fff" stroke-linecap="round" stroke-miterlimit="10" stroke-width="11"/><path d="M-109.08,362.55l28.16-4.69A12.21,12.21,0,0,0-74.4,355a16.59,16.59,0,0,0,4.56-7.46L11.67,107.07q1.71-5,.66-8.46a10.64,10.64,0,0,0-3.52-5.4L-11.45,74.59l6-17.6,112.32,32.3Q133.56,97,148.7,107.85t21.65,23.78a53.13,53.13,0,0,1,5.83,26.89,101,101,0,0,1-5.33,27.69,110.21,110.21,0,0,1-13.23,27,91.45,91.45,0,0,1-18.17,19.85,75.39,75.39,0,0,1-22.29,12.4,89.42,89.42,0,0,1-25.65,4.92L91,251.8A82.06,82.06,0,0,1,116.26,267a65.06,65.06,0,0,1,16.18,22,70.31,70.31,0,0,1,5.89,27.78,95.47,95.47,0,0,1-5.54,32.39q-6.27,18.53-15,31.55A94.29,94.29,0,0,1,98.63,402a77.06,77.06,0,0,1-22.25,12.55,96.62,96.62,0,0,1-24.31,5.3,112.72,112.72,0,0,1-25.13-.71,180.69,180.69,0,0,1-25-5.3l-117-33.65ZM11.44,379.9q22.2,6.39,37.5-3.38t25.23-39q5.81-17.13,6.94-29.73T78.62,286a33,33,0,0,0-12.2-15.18q-8.58-6-22.2-9.89l-24.55-7.06L-20,370.86ZM44.58,226.65q13.28,3.81,23.4,3.09a37.86,37.86,0,0,0,17.88-5.65,43,43,0,0,0,13.2-13.38,92,92,0,0,0,9.49-20.35q10.45-30.86,4.85-47.51T85.94,119.9l-19-5.46L30.29,222.54Z" transform="translate(685.06 661.92)" stroke="#fff" stroke-miterlimit="10" stroke-width="4"/><text transform="translate(1423.35 1021.63) scale(0.76 1)" font-size="826.62" font-family="Calibri, Calibri" letter-spacing="-0.07em">F<tspan x="318.76" y="0" letter-spacing="-0.05em">a</tspan><tspan x="675.86" y="0" letter-spacing="-0.07em">n</tspan><tspan x="1055.97" y="0" letter-spacing="-0.06em">y</tspan><tspan x="1378.77" y="0" letter-spacing="-0.05em">a</tspan><tspan x="1735.87" y="0" fill="#e86036" font-family="LeelawadeeUI-Bold, Leelawadee UI" font-weight="700" letter-spacing="-0.05em">Biashara</tspan></text></svg>