<?xml version="1.0" encoding="utf-8"?>
<!-- Generator: Adobe Illustrator 22.0.0, SVG Export Plug-In . SVG Version: 6.00 Build 0)  -->
<svg version="1.1" id="Layer_1" xmlns:x="&ns_extend;" xmlns:i="&ns_ai;" xmlns:graph="&ns_graphs;"
	 xmlns="http://www.w3.org/2000/svg" xmlns:xlink="http://www.w3.org/1999/xlink" x="0px" y="0px" viewBox="0 0 100 100"
	 style="enable-background:new 0 0 100 100;" xml:space="preserve">
<style type="text/css">
	.st0{fill:#007BFF;}
	.st1{fill:#FFFFFF;}
	.st2{fill:#F68A1F;}
</style>
<metadata>
	<sfw  xmlns="&ns_sfw;">
		<slices></slices>
		<sliceSourceBounds  bottomLeftOrigin="true" height="74.4" width="76.9" x="10.6" y="13.8"></sliceSourceBounds>
	</sfw>
</metadata>
<g>
	<g>
		<path class="st0" d="M79.9,86.2H18c-4.1,0-7.4-3.4-7.4-7.4V19.2c0-4.1,3.4-7.4,7.4-7.4h62c4.1,0,7.4,3.4,7.4,7.4v59.6
			C87.4,82.8,84,86.2,79.9,86.2z"/>
	</g>
	<path class="st1" d="M70.8,37H27.2c-1.8,0-3.2-1.4-3.2-3.2v-2.5c0-1.8,1.4-3.2,3.2-3.2h43.5c1.8,0,3.2,1.4,3.2,3.2v2.5
		C74,35.6,72.6,37,70.8,37z"/>
	<path class="st1" d="M51.7,54H27.3c-1.8,0-3.3-1.5-3.3-3.3v-2.4c0-1.8,1.5-3.3,3.3-3.3h24.4c1.8,0,3.3,1.5,3.3,3.3v2.4
		C55,52.5,53.5,54,51.7,54z"/>
	<circle class="st2" cx="28.5" cy="65.5" r="5.5"/>
</g>
</svg>
