<svg class="svg-icon" style="width: 1em; height: 1em;vertical-align: middle;fill: currentColor;overflow: hidden;" viewBox="0 0 1024 1024" version="1.1" xmlns="http://www.w3.org/2000/svg"><path d="M325.818182 372.363636a23.272727 23.272727 0 0 0-23.272727 23.272728 23.272727 23.272727 0 0 0 23.272727 23.272727 23.272727 23.272727 0 0 0 23.272727-23.272727 23.272727 23.272727 0 0 0-23.272727-23.272728z" fill="#0000FF" /><path d="M488.727273 372.363636m23.272727 0l0 0q23.272727 0 23.272727 23.272728l0 93.090909q0 23.272727-23.272727 23.272727l0 0q-23.272727 0-23.272727-23.272727l0-93.090909q0-23.272727 23.272727-23.272728Z" fill="#0000FF" /><path d="M209.454545 674.909091m46.545455 0l512 0q46.545455 0 46.545455 46.545454l0 186.181819q0 46.545455-46.545455 46.545454l-512 0q-46.545455 0-46.545455-46.545454l0-186.181819q0-46.545455 46.545455-46.545454Z" fill="#0000FF" /><path d="M814.545455 256H209.454545a46.545455 46.545455 0 0 0-46.545454 46.545455v279.272727a46.545455 46.545455 0 0 0 46.545454 46.545454h605.09091a46.545455 46.545455 0 0 0 46.545454-46.545454V302.545455a46.545455 46.545455 0 0 0-46.545454-46.545455z m-442.181819 209.454545h-46.545454a23.272727 23.272727 0 0 0-23.272727 23.272728v46.545454a23.272727 23.272727 0 0 1-23.272728 23.272728 23.272727 23.272727 0 0 1-23.272727-23.272728v-186.181818a23.272727 23.272727 0 0 1 23.272727-23.272727h93.090909a23.272727 23.272727 0 0 1 23.272728 23.272727v93.090909a23.272727 23.272727 0 0 1-23.272728 23.272727z m186.181819 93.09091h-93.09091a23.272727 23.272727 0 0 1-23.272727-23.272728v-186.181818a23.272727 23.272727 0 0 1 23.272727-23.272727h93.09091a23.272727 23.272727 0 0 1 23.272727 23.272727v186.181818a23.272727 23.272727 0 0 1-23.272727 23.272728z m186.181818-186.181819h-46.545455a23.272727 23.272727 0 0 0-23.272727 23.272728 23.272727 23.272727 0 0 0 23.272727 23.272727h46.545455a23.272727 23.272727 0 0 1 23.272727 23.272727v93.090909a23.272727 23.272727 0 0 1-23.272727 23.272728h-93.090909a23.272727 23.272727 0 0 1-23.272728-23.272728 23.272727 23.272727 0 0 1 23.272728-23.272727h46.545454a23.272727 23.272727 0 0 0 23.272727-23.272727 23.272727 23.272727 0 0 0-23.272727-23.272728h-46.545454a23.272727 23.272727 0 0 1-23.272728-23.272727v-93.090909a23.272727 23.272727 0 0 1 23.272728-23.272727h93.090909a23.272727 23.272727 0 0 1 23.272727 23.272727 23.272727 23.272727 0 0 1-23.272727 23.272727z" fill="#0000FF" /><path d="M209.454545 93.090909m46.545455 0l512 0q46.545455 0 46.545455 46.545455l0 23.272727q0 46.545455-46.545455 46.545454l-512 0q-46.545455 0-46.545455-46.545454l0-23.272727q0-46.545455 46.545455-46.545455Z" fill="#0000FF" /></svg>