<svg id="Layer_1" data-name="Layer 1" xmlns="http://www.w3.org/2000/svg" viewBox="0 0 234.285 215.778"><title>post11</title><rect x="201.042" width="33.242" height="35.549" rx="3.648" ry="3.648" fill="#007bff"/><rect x="205.859" y="6.038" width="23.88" height="5.156" rx="2.578" ry="2.578" fill="#fff"/><rect x="205.723" y="15.183" width="23.88" height="5.156" rx="2.578" ry="2.578" fill="#fff"/><circle cx="208.889" cy="26.797" r="2.985" fill="#ff8a00"/><text transform="translate(0 209.368) scale(0.986 1)" font-size="26.844" fill="#007bff" font-family="Gadugi-Bold, Gadugi" font-weight="700" letter-spacing="-0.03em">F<tspan x="13.16" y="0" letter-spacing="0em">anyabiashara </tspan></text><rect x="28.943" y="148.146" width="125.88" height="30.806" rx="12" ry="12" fill="#0020bc"/><text transform="translate(38.799 170.927)" font-size="22.444" fill="#fff" font-family="Gadugi, Gadugi">WE<tspan x="32.318" y="0" letter-spacing="-0.032em">L</tspan><tspan x="42.159" y="0" letter-spacing="-0.013em">C</tspan><tspan x="55.759" y="0">OME</tspan></text><path d="M204.876,25.715c.987-4.026.048-8.721-3.141-11.369A19.1,19.1,0,0,1,197.064,26.6c-1.144,1.309-2.553,2.646-2.608,4.383a4.267,4.267,0,0,0,1.221,2.921,12.68,12.68,0,0,0,2.551,1.99l.133.235C201.279,33.183,203.889,29.741,204.876,25.715Z" transform="translate(-57.51 -6.451)" fill="#f0f0f0"/><path d="M201.671,14.405a16.325,16.325,0,0,1,.52,10.03,7.008,7.008,0,0,1-.859,2.028,4.028,4.028,0,0,1-1.6,1.39,8.362,8.362,0,0,0-1.762.987,2.467,2.467,0,0,0-.83,1.84,6.41,6.41,0,0,0,.573,2.488,6.3,6.3,0,0,1,.635,2.764c-.009.117.173.126.183.008.138-1.683-1.006-3.106-1.187-4.739a2.5,2.5,0,0,1,.623-2.11,6.465,6.465,0,0,1,1.77-1.036,4.31,4.31,0,0,0,1.619-1.3,6.51,6.51,0,0,0,.933-1.988,15.826,15.826,0,0,0,.633-4.909,16.6,16.6,0,0,0-1.086-5.537c-.042-.11-.2-.024-.162.085Z" transform="translate(-57.51 -6.451)" fill="#fff"/><path d="M202.539,23.384a2.449,2.449,0,0,0,2.656-1.733c.033-.113-.141-.17-.174-.057a2.269,2.269,0,0,1-2.474,1.608c-.116-.016-.124.167-.008.182Z" transform="translate(-57.51 -6.451)" fill="#fff"/><path d="M200.053,27.74a4.727,4.727,0,0,1-1-3.292c.009-.117-.173-.125-.182-.008a4.908,4.908,0,0,0,1.049,3.423C199.992,27.955,200.126,27.831,200.053,27.74Z" transform="translate(-57.51 -6.451)" fill="#fff"/><path d="M202.656,18.064a1.386,1.386,0,0,1-1.2-.53c-.072-.093-.207.031-.135.123a1.554,1.554,0,0,0,1.33.59.1.1,0,0,0,.1-.087.092.092,0,0,0-.087-.1Z" transform="translate(-57.51 -6.451)" fill="#fff"/><path d="M187.945,16.952q.065.088.129.18a18.283,18.283,0,0,1,1.533,2.534c.035.068.069.137.1.206a19.246,19.246,0,0,1,1.867,6.836,18.7,18.7,0,0,1,.014,2.84,12.143,12.143,0,0,0,.035,3.939,3.13,3.13,0,0,0,.123.377l6.315,2.407.051,0,.248.108c.007-.049.013-.1.02-.148,0-.028.006-.057.011-.085s0-.038.007-.055l0-.017c0-.017,0-.033.007-.049.035-.282.068-.564.1-.848v0a27.532,27.532,0,0,0,0-6.5c-.008-.064-.016-.13-.028-.2a17.943,17.943,0,0,0-.631-2.842,15.7,15.7,0,0,0-.554-1.5,13.114,13.114,0,0,0-2.19-3.465,10.412,10.412,0,0,0-6.956-3.709C188.082,16.96,188.014,16.955,187.945,16.952Z" transform="translate(-57.51 -6.451)" fill="#f0f0f0"/><path d="M187.928,17.038a16.318,16.318,0,0,1,6.454,7.7,7.022,7.022,0,0,1,.536,2.137,4.039,4.039,0,0,1-.443,2.075,8.318,8.318,0,0,0-.813,1.849,2.469,2.469,0,0,0,.445,1.969,6.409,6.409,0,0,0,1.955,1.641,6.294,6.294,0,0,1,2.172,1.825c.063.1.213,0,.15-.1-.9-1.428-2.672-1.875-3.8-3.07a2.5,2.5,0,0,1-.772-2.06A6.463,6.463,0,0,1,194.6,29.1a4.3,4.3,0,0,0,.509-2.013,6.489,6.489,0,0,0-.451-2.149,15.842,15.842,0,0,0-2.45-4.3,16.633,16.633,0,0,0-4.2-3.768c-.1-.062-.176.1-.078.166Z" transform="translate(-57.51 -6.451)" fill="#fff"/><path d="M194.027,23.685A2.447,2.447,0,0,0,195.1,20.7c-.041-.11-.214-.051-.172.059a2.269,2.269,0,0,1-1.008,2.773C193.822,23.592,193.926,23.742,194.027,23.685Z" transform="translate(-57.51 -6.451)" fill="#fff"/><path d="M194.665,28.659a4.717,4.717,0,0,1-2.781-2.025c-.063-.1-.214,0-.151.1a4.917,4.917,0,0,0,2.9,2.1C194.746,28.868,194.779,28.688,194.665,28.659Z" transform="translate(-57.51 -6.451)" fill="#fff"/><path d="M190.918,19.367a1.386,1.386,0,0,1-1.281.3c-.113-.031-.146.149-.033.18a1.552,1.552,0,0,0,1.417-.33.1.1,0,0,0,.024-.127.092.092,0,0,0-.127-.024Z" transform="translate(-57.51 -6.451)" fill="#fff"/><path d="M179.6,107.893a38.4,38.4,0,1,1,6.677-76.213.212.212,0,0,1-.071.418h0a37.975,37.975,0,1,0,31.368,37.4,37.88,37.88,0,0,0-9.906-25.577.212.212,0,0,1,.314-.285,38.4,38.4,0,0,1-28.38,64.258Z" transform="translate(-57.51 -6.451)" fill="#e4e4e4"/><circle cx="139.015" cy="30.222" r="7.597" fill="#007bff"/><path d="M195.488,40.627a.846.846,0,0,1-.676-.339l-2.072-2.763a.845.845,0,1,1,1.352-1.014l1.356,1.808L198.93,33.1a.846.846,0,0,1,1.407.938l-4.145,6.217a.846.846,0,0,1-.68.376Z" transform="translate(-57.51 -6.451)" fill="#fff"/><path d="M178.607,63.538l-11.714-32.59.3-.106-2.155-5.995-.3.107-3.6-10.006a3.024,3.024,0,0,0-3.868-1.823h0L136.1,20.738a3.023,3.023,0,0,0-1.823,3.868h0l2.508,6.977-.47.181,1.6,4.157.376-.145.332.925-.4.154,1.6,4.157.306-.118,11.611,32.3a3.019,3.019,0,0,0,3.858,1.826l.011,0,21.177-7.613A3.027,3.027,0,0,0,178.607,63.538Z" transform="translate(-57.51 -6.451)" fill="#3f3d56"/><path d="M154.493,73.945a1.452,1.452,0,0,1-1.363-.959l-17.65-49.1a1.449,1.449,0,0,1,.873-1.854l4.506-1.62-.006.158a1.67,1.67,0,0,0,2.233,1.642l10-3.594a1.693,1.693,0,0,0,.952-1.2,1.659,1.659,0,0,0-.394-1.45l-.106-.117,4.654-1.673a1.451,1.451,0,0,1,1.854.873L176.886,61.9a3.849,3.849,0,0,1-2.318,4.919l-19.584,7.039A1.442,1.442,0,0,1,154.493,73.945Z" transform="translate(-57.51 -6.451)" fill="#fff"/><circle cx="95.257" cy="26.939" r="5.728" fill="#007bff"/><path d="M166.96,41.719l-19.834,7.13a.5.5,0,1,1-.341-.942h0l19.834-7.13a.5.5,0,0,1,.339.943Z" transform="translate(-57.51 -6.451)" fill="#e6e6e6"/><path d="M161.07,46.24l-6.524,2.345a.5.5,0,1,1-.341-.942h0l6.524-2.345a.5.5,0,0,1,.339.943Z" transform="translate(-57.51 -6.451)" fill="#e6e6e6"/><path d="M162.622,50.557,156.1,52.9a.5.5,0,1,1-.341-.942h0l6.524-2.345a.5.5,0,0,1,.339.943Z" transform="translate(-57.51 -6.451)" fill="#e6e6e6"/><path d="M163.417,52.768l-6.525,2.345a.5.5,0,1,1-.34-.942h0l6.524-2.345a.5.5,0,0,1,.341.942Z" transform="translate(-57.51 -6.451)" fill="#e6e6e6"/><path d="M165.494,47.053l-13.842,4.976a.5.5,0,0,1-.341-.943h0l13.842-4.976a.5.5,0,1,1,.341.942Z" transform="translate(-57.51 -6.451)" fill="#e6e6e6"/><path d="M162.706,58.136l-2.369.851a.852.852,0,0,1-.576-1.6l2.369-.852a.852.852,0,0,1,.576,1.6Z" transform="translate(-57.51 -6.451)" fill="#007bff"/><circle cx="86.528" cy="13.788" r="0.329" fill="#fff"/><path d="M106.152,38.767c3.692-4.346,9.683-7.085,15.206-5.665a26.273,26.273,0,0,0-9.893,15.085c-.537,2.331-.891,4.979-2.783,6.442a5.877,5.877,0,0,1-4.24.994,17.463,17.463,0,0,1-4.275-1.24l-.37.041C100.726,48.8,102.459,43.113,106.152,38.767Z" transform="translate(-57.51 -6.451)" fill="#f0f0f0"/><path d="M121.344,33.221a22.447,22.447,0,0,0-11.6,7.507,9.653,9.653,0,0,0-1.569,2.592,5.55,5.55,0,0,0-.258,2.908,11.445,11.445,0,0,1,.321,2.76,3.4,3.4,0,0,1-1.382,2.41,8.809,8.809,0,0,1-3.235,1.366,8.672,8.672,0,0,0-3.594,1.521c-.123.105-.279-.092-.157-.2,1.766-1.512,4.274-1.384,6.241-2.5a3.438,3.438,0,0,0,1.849-2.4,8.893,8.893,0,0,0-.272-2.809,5.917,5.917,0,0,1,.146-2.853,8.949,8.949,0,0,1,1.463-2.643,21.794,21.794,0,0,1,4.963-4.664,22.839,22.839,0,0,1,7.048-3.253c.156-.042.191.207.036.249Z" transform="translate(-57.51 -6.451)" fill="#fff"/><path d="M110.634,39.493a3.371,3.371,0,0,1-.209-4.358c.1-.128.3.02.2.148a3.119,3.119,0,0,0,.2,4.053c.111.118-.086.274-.2.157Z" transform="translate(-57.51 -6.451)" fill="#fff"/><path d="M107.783,45.775a6.5,6.5,0,0,0,4.476-1.537c.123-.1.28.092.156.2a6.754,6.754,0,0,1-4.661,1.59c-.162-.007-.132-.257.029-.25Z" transform="translate(-57.51 -6.451)" fill="#fff"/><path d="M116.471,35.074a1.906,1.906,0,0,0,1.562.914c.161.005.132.255-.029.25a2.139,2.139,0,0,1-1.73-1.008.131.131,0,0,1,.02-.177.128.128,0,0,1,.177.021Z" transform="translate(-57.51 -6.451)" fill="#fff"/><path d="M129.571,50.577h-.305a25.238,25.238,0,0,0-4.061.335c-.1.016-.209.033-.312.052a26.466,26.466,0,0,0-9.126,3.428,25.686,25.686,0,0,0-3.177,2.275,16.744,16.744,0,0,1-4.419,3.137,4.364,4.364,0,0,1-.52.166l-7.775-5.1c-.012-.02-.025-.039-.037-.06l-.32-.189.149-.141c.028-.028.058-.054.086-.081l.055-.053.018-.016c.016-.017.033-.031.048-.047q.429-.4.866-.794l0,0a37.833,37.833,0,0,1,7.242-5.24c.079-.043.159-.087.241-.127a24.587,24.587,0,0,1,3.676-1.587,21.515,21.515,0,0,1,2.115-.589,18.017,18.017,0,0,1,5.629-.352,14.324,14.324,0,0,1,9.742,4.764C129.451,50.43,129.511,50.5,129.571,50.577Z" transform="translate(-57.51 -6.451)" fill="#f0f0f0"/><path d="M129.489,50.664a22.457,22.457,0,0,0-13.782-.99,9.656,9.656,0,0,0-2.814,1.125,5.549,5.549,0,0,0-1.956,2.167,11.529,11.529,0,0,1-1.406,2.4,3.4,3.4,0,0,1-2.554,1.092,8.832,8.832,0,0,1-3.406-.857,8.665,8.665,0,0,0-3.785-.95c-.162.01-.168-.241-.006-.251,2.32-.144,4.245,1.468,6.486,1.762a3.444,3.444,0,0,0,2.92-.8,8.923,8.923,0,0,0,1.473-2.407,5.936,5.936,0,0,1,1.834-2.19,8.949,8.949,0,0,1,2.76-1.229,21.81,21.81,0,0,1,6.77-.737,22.869,22.869,0,0,1,7.587,1.647c.15.06.027.28-.121.22Z" transform="translate(-57.51 -6.451)" fill="#fff"/><path d="M117.161,49.224a3.37,3.37,0,0,1,2.457-3.606c.156-.042.229.2.073.241a3.121,3.121,0,0,0-2.279,3.359c.018.16-.233.166-.251.006Z" transform="translate(-57.51 -6.451)" fill="#fff"/><path d="M111.1,52.523a6.493,6.493,0,0,0,4.5,1.468.126.126,0,0,1,.007.251,6.751,6.751,0,0,1-4.679-1.537c-.125-.1.049-.285.173-.182Z" transform="translate(-57.51 -6.451)" fill="#fff"/><path d="M124.482,49.209a1.907,1.907,0,0,0,.7,1.671c.126.1-.048.283-.173.182a2.137,2.137,0,0,1-.774-1.846.129.129,0,0,1,.122-.129A.127.127,0,0,1,124.482,49.209Z" transform="translate(-57.51 -6.451)" fill="#fff"/><path d="M216.962,122.3c4.026.987,8.721.049,11.369-3.14a19.1,19.1,0,0,1-12.252-4.671c-1.309-1.145-2.646-2.553-4.383-2.609a4.271,4.271,0,0,0-2.921,1.221,12.68,12.68,0,0,0-1.99,2.551l-.235.133C209.494,118.706,212.936,121.315,216.962,122.3Z" transform="translate(-57.51 -6.451)" fill="#f0f0f0"/><path d="M228.272,119.1a16.317,16.317,0,0,1-10.03.519,7.006,7.006,0,0,1-2.028-.858,4.035,4.035,0,0,1-1.39-1.6,8.344,8.344,0,0,0-.987-1.763,2.471,2.471,0,0,0-1.84-.83,6.41,6.41,0,0,0-2.488.573,6.286,6.286,0,0,1-2.764.635c-.117-.009-.126.173-.008.183,1.683.138,3.106-1,4.739-1.187a2.5,2.5,0,0,1,2.11.624,6.46,6.46,0,0,1,1.036,1.77,4.307,4.307,0,0,0,1.3,1.618,6.51,6.51,0,0,0,1.988.933,15.856,15.856,0,0,0,4.909.634,16.6,16.6,0,0,0,5.537-1.087c.11-.041.024-.2-.085-.161Z" transform="translate(-57.51 -6.451)" fill="#fff"/><path d="M219.293,119.965a2.449,2.449,0,0,0,1.733,2.656c.113.033.17-.141.057-.174a2.269,2.269,0,0,1-1.608-2.474c.016-.116-.167-.124-.182-.008Z" transform="translate(-57.51 -6.451)" fill="#fff"/><path d="M214.937,117.48a4.723,4.723,0,0,1,3.292-1c.117.009.125-.173.008-.182a4.908,4.908,0,0,0-3.423,1.049c-.092.073.032.208.123.135Z" transform="translate(-57.51 -6.451)" fill="#fff"/><path d="M224.613,120.082a1.387,1.387,0,0,1,.53-1.2c.093-.072-.031-.206-.123-.135a1.556,1.556,0,0,0-.59,1.331.1.1,0,0,0,.088.095.092.092,0,0,0,.095-.087Z" transform="translate(-57.51 -6.451)" fill="#fff"/><path d="M225.725,105.371c-.059.043-.119.087-.18.13a18.276,18.276,0,0,1-2.534,1.532c-.068.035-.137.07-.206.1A19.247,19.247,0,0,1,215.969,109a18.7,18.7,0,0,1-2.84.013,12.143,12.143,0,0,0-3.939.035,3.13,3.13,0,0,0-.377.123l-2.407,6.315c0,.017,0,.034,0,.051l-.108.248.148.02.085.011.055.007.017,0,.049.007c.282.035.564.068.848.1h0a27.479,27.479,0,0,0,6.5,0c.064-.008.13-.016.195-.028a17.724,17.724,0,0,0,2.842-.631c.507-.159,1.007-.344,1.5-.553A13.117,13.117,0,0,0,222,112.533a10.412,10.412,0,0,0,3.709-6.956C225.717,105.508,225.722,105.441,225.725,105.371Z" transform="translate(-57.51 -6.451)" fill="#f0f0f0"/><path d="M225.639,105.355a16.329,16.329,0,0,1-7.7,6.454,7.049,7.049,0,0,1-2.137.535,4.039,4.039,0,0,1-2.075-.443,8.364,8.364,0,0,0-1.849-.813,2.469,2.469,0,0,0-1.969.445,6.409,6.409,0,0,0-1.641,1.955,6.294,6.294,0,0,1-1.825,2.172c-.1.063,0,.214.1.151,1.428-.9,1.875-2.673,3.07-3.8a2.5,2.5,0,0,1,2.06-.773,6.465,6.465,0,0,1,1.893.79,4.3,4.3,0,0,0,2.013.508,6.489,6.489,0,0,0,2.149-.451,15.816,15.816,0,0,0,4.3-2.45,16.593,16.593,0,0,0,3.768-4.2c.062-.1-.1-.177-.166-.078Z" transform="translate(-57.51 -6.451)" fill="#fff"/><path d="M218.992,111.454a2.449,2.449,0,0,0,2.983,1.077c.11-.042.051-.215-.059-.173a2.268,2.268,0,0,1-2.773-1.008C219.085,111.248,218.935,111.352,218.992,111.454Z" transform="translate(-57.51 -6.451)" fill="#fff"/><path d="M214.018,112.091a4.723,4.723,0,0,1,2.025-2.781c.1-.063,0-.214-.1-.15a4.906,4.906,0,0,0-2.1,2.9c-.03.114.15.147.179.033Z" transform="translate(-57.51 -6.451)" fill="#fff"/><path d="M223.31,108.344a1.386,1.386,0,0,1-.3-1.281c.031-.113-.149-.146-.18-.033a1.552,1.552,0,0,0,.33,1.417.1.1,0,0,0,.127.024.092.092,0,0,0,.024-.127Z" transform="translate(-57.51 -6.451)" fill="#fff"/><path d="M233.094,83.607l-6.139,10.331.233.123L225.109,98l-.432-.229-1.367,2.3.34.2-2.228,3.857-.386-.223-20.031,33.712a3.876,3.876,0,0,1-5.308,1.351l-37.239-22.127a3.876,3.876,0,0,1-1.352-5.308l32.089-54a3.877,3.877,0,0,1,5.308-1.351L231.743,78.3A3.879,3.879,0,0,1,233.094,83.607Z" transform="translate(-57.51 -6.451)" fill="#3f3d56"/><path d="M197.024,136.878l-37.37-22.2a1.2,1.2,0,0,1-.417-1.636l32.3-54.364a1.2,1.2,0,0,1,1.636-.417l37.371,22.206a1.2,1.2,0,0,1,.417,1.636l-32.3,54.363A1.2,1.2,0,0,1,197.024,136.878Z" transform="translate(-57.51 -6.451)" fill="#fff"/><circle cx="154.865" cy="61.719" r="0.329" fill="#fff"/><path d="M210.337,107.443l-31.2-18.536a.863.863,0,0,1,.875-1.487l.006,0,31.2,18.536a.862.862,0,0,1-.877,1.485Z" transform="translate(-57.51 -6.451)" fill="#e6e6e6"/><path d="M197.88,104.57l-10.261-6.1a.863.863,0,0,1,.88-1.484h0l10.261,6.1a.863.863,0,0,1-.882,1.483Z" transform="translate(-57.51 -6.451)" fill="#e6e6e6"/><path d="M193.846,111.36l-10.261-6.1a.862.862,0,0,1,.881-1.483l10.261,6.1a.862.862,0,1,1-.879,1.484Z" transform="translate(-57.51 -6.451)" fill="#e6e6e6"/><path d="M191.78,114.838l-10.261-6.1a.862.862,0,1,1,.881-1.483h0l10.261,6.1a.862.862,0,1,1-.876,1.485l0,0Z" transform="translate(-57.51 -6.451)" fill="#e6e6e6"/><path d="M201.646,111.337,179.876,98.4a.862.862,0,0,1,.881-1.483l21.771,12.936a.863.863,0,0,1-.877,1.486Z" transform="translate(-57.51 -6.451)" fill="#e6e6e6"/><path d="M197.5,127.869l-3.726-2.214a1.467,1.467,0,0,1,1.5-2.522L199,125.347a1.467,1.467,0,1,1-1.5,2.522Z" transform="translate(-57.51 -6.451)" fill="#007bff"/><circle cx="146.938" cy="77.837" r="7.637" fill="#007bff"/><path d="M79.241,115.321H182.587V55.49A1.693,1.693,0,0,0,180.9,53.8H80.932a1.693,1.693,0,0,0-1.691,1.691Z" transform="translate(-57.51 -6.451)" fill="#cacaca"/><rect x="24.924" y="49.687" width="96.96" height="55.046" fill="#fff"/><path d="M79.151,113.7v7.383a2.33,2.33,0,0,0,2.331,2.331h38.144v14.571h-.507a.3.3,0,0,0-.3.3h0V139.3a.3.3,0,0,0,.3.3H142.8a.3.3,0,0,0,.3-.3h0V138.29a.3.3,0,0,0-.3-.3h-.507V123.416h38.144a2.33,2.33,0,0,0,2.331-2.331h0V113.7Z" transform="translate(-57.51 -6.451)" fill="#3f3d56"/><path d="M165.364,74.547H119.447a1.092,1.092,0,0,1,0-2.183h45.917a1.092,1.092,0,0,1,0,2.183Z" transform="translate(-57.51 -6.451)" fill="#e6e6e6"/><path d="M149.957,79.474h-15.1a1.092,1.092,0,1,1,0-2.183h15.1a1.092,1.092,0,1,1,0,2.183Z" transform="translate(-57.51 -6.451)" fill="#e6e6e6"/><path d="M149.957,89.468h-15.1a1.092,1.092,0,1,1,0-2.183h15.1a1.092,1.092,0,1,1,0,2.183Z" transform="translate(-57.51 -6.451)" fill="#e6e6e6"/><path d="M149.957,94.587h-15.1a1.092,1.092,0,0,1-.005-2.183h15.108a1.092,1.092,0,1,1,0,2.183Z" transform="translate(-57.51 -6.451)" fill="#e6e6e6"/><path d="M158.428,84.4H126.384a1.092,1.092,0,1,1,0-2.183h32.044a1.092,1.092,0,0,1,0,2.183Z" transform="translate(-57.51 -6.451)" fill="#e6e6e6"/><path d="M164.6,105.067h-5.483a1.856,1.856,0,0,1,0-3.712H164.6a1.856,1.856,0,1,1,0,3.712Z" transform="translate(-57.51 -6.451)" fill="#007bff"/><circle cx="47.498" cy="75.6" r="9.546" fill="#007bff"/><path d="M216.715,140H79.4a.253.253,0,0,1,0-.5H216.715a.253.253,0,0,1,0,.5Z" transform="translate(-57.51 -6.451)" fill="#cacaca"/><circle cx="73.359" cy="48.158" r="0.36" fill="#fff"/></svg>