<svg id="Layer_1" data-name="Layer 1" xmlns="http://www.w3.org/2000/svg" viewBox="0 0 300 346.864"><title>post22</title><rect y="25.864" width="300" height="321" fill="#fff"/><path d="M300,150C101,165,104,320,104,320H0V-1H300Z" transform="translate(0 25.864)" fill="#1c00aa"/><path d="M104,320H300V150C98,160,104,320,104,320Z" transform="translate(0 25.864)" fill="#007bff"/><text transform="translate(14.999 41.013)" font-size="49" fill="#fff" font-family="MyriadPro-Regular, Myriad Pro">.....</text><text transform="translate(14.999 50.013)" font-size="49" fill="#fff" font-family="MyriadPro-Regular, Myriad Pro">.....</text><text y="25.864"></text><rect x="237.553" y="36.315" width="49.947" height="53.413" rx="7.267" ry="7.267" fill="#007bff"/><rect x="244.79" y="45.387" width="35.881" height="7.747" rx="3.873" ry="3.873" fill="#fff"/><rect x="244.586" y="59.128" width="35.881" height="7.747" rx="3.873" ry="3.873" fill="#fff"/><circle cx="249.342" cy="76.578" r="4.485" fill="#ff8a00"/><polyline points="0 117.864 143.5 117.364 231.5 207.364 300 207.364 300 248.864 230.5 248.364 138.5 337.364 0 337.364"/><polyline points="0 137.232 133.873 137.232 202 221.875 132.683 307.995 0 307.995" fill="#fff" stroke="#ff8a00" stroke-miterlimit="10" stroke-width="5"/><text transform="translate(231.786 182.357) scale(0.986 1)" font-size="18.026" fill="#ff8a00" font-family="SEAGARDENS, SEA GARDENS">Grow </text><text transform="translate(233.786 205.357) scale(0.986 1)" font-size="18.026" fill="#ff8a00" font-family="SEAGARDENS, SEA GARDENS">Your</text><text transform="translate(213.786 231.357) scale(0.986 1)" font-size="18.026" fill="#ff8a00" font-family="SEAGARDENS, SEA GARDENS">Business</text><text transform="translate(26.785 329.77) scale(0.986 1)" font-size="17.483" fill="#fff" font-family="Gadugi-Bold, Gadugi" font-weight="700"><tspan xml:space="preserve"> Manage &amp; connect </tspan><tspan x="165.436" y="0" letter-spacing="-0.004em">t</tspan><tspan x="172.171" y="0" letter-spacing="0em">o Business</tspan></text><text transform="translate(11.786 98.066) scale(0.986 1)" font-size="16.66" fill="#fff" font-family="SEAGARDENS, SEA GARDENS">market your business</text><text transform="translate(14.667 59.197)" font-size="49" fill="#fff" font-family="MyriadPro-Regular, Myriad Pro">.....</text><path d="M139.084,204.184a.949.949,0,0,0,.695-1.149.876.876,0,0,0-.054-.159l2.466-2.306-1.706-.41-2.08,2.253a.955.955,0,0,0,.679,1.771Z" transform="translate(0 25.864)" fill="#ffb6b6"/><path d="M140.358,202.327l-1.15-1.622,4.32-4.468,1-7.044a2.394,2.394,0,0,1,3.137-1.932h0a2.4,2.4,0,0,1,1.5,3.035l-2.56,7.594Z" transform="translate(0 25.864)" fill="#e4e4e4"/><polygon points="148.469 258.201 147.193 258.201 146.585 253.276 148.47 253.276 148.469 258.201" fill="#ffb6b6"/><path d="M149.156,234.761h-.906l-.162-.855-.414.855h-2.4a.54.54,0,0,1-.307-.985l1.919-1.325v-.865l2.019.121Z" transform="translate(0 25.864)" fill="#2f2e41"/><polygon points="156.346 256.901 155.225 257.512 152.337 253.476 153.993 252.575 156.346 256.901" fill="#ffb6b6"/><path d="M158.108,232.839l-.8.433-.551-.674.045.949L154.7,234.7a.54.54,0,0,1-.74-.718l1.052-2.081-.413-.759,1.83-.859Z" transform="translate(0 25.864)" fill="#2f2e41"/><path d="M149.007,230.583h-2.638v-9.4l-1.634-6.126a35.062,35.062,0,0,1-.917-13.446l0-.019.014-.012c.042-.035,4.223-3.492,6.867-.847,1.783,1.782.108,8.192.014,8.544V220.33Z" transform="translate(0 25.864)" fill="#2f2e41"/><path d="M149,186.28l-.014-.014-3.365.051-1.8,4.216c-1.663,2.582-.073,4.051.039,4.284l-.318,3.169-.2,2.044-.329,3.292,7.711-2.519-.858-3.436.991-4.956A6.776,6.776,0,0,0,149,186.28Z" transform="translate(0 25.864)" fill="#e4e4e4"/><polygon points="147.433 247.099 152.854 254.724 154.933 253.245 150.406 243.942 147.433 247.099" fill="#2f2e41"/><circle cx="146.99" cy="208.218" r="3.106" fill="#ffb6b6"/><polygon points="149.986 220.234 146.598 224.143 143.342 225.894 143.547 223.85 145.464 222.773 149.986 220.234" opacity="0.1" style="isolation:isolate"/><path d="M144.815,188.175l-.292-1.277a3.286,3.286,0,0,1,.453-2.51,2.277,2.277,0,0,0,.07-2.327,1.789,1.789,0,0,0-1.559-.983h-.078V181a1.914,1.914,0,0,1,1.675-1.944.854.854,0,0,1,.479-.605,3.441,3.441,0,0,1,3,.046.948.948,0,0,1,.584-.775.932.932,0,0,1,.51-.029,1.155,1.155,0,0,1,.325-.744,1.366,1.366,0,0,1,1.213-.279,3.261,3.261,0,0,1,1.888,1.22,9.677,9.677,0,0,1,1.127,1.952,9.224,9.224,0,0,0,1.111,1.919,3.086,3.086,0,0,0,1.8,1.154,1.852,1.852,0,0,0,1.879-.753l.07-.114.064.117a2.1,2.1,0,0,1-.386,2.385,2.859,2.859,0,0,1-2.338.8,4.576,4.576,0,0,1-2.3-.969,3.45,3.45,0,0,1-1.386-1.861,5.113,5.113,0,0,1-.1-.627,2.029,2.029,0,0,0-.371-1.166,1.9,1.9,0,0,0-.958-.487l-.066-.017a.858.858,0,0,1-.366.624.634.634,0,0,1-.2.077,3.8,3.8,0,0,1-.476,3.561c-1.189,1.348-3.473,1.07-3.57,1.058l-.064-.008,0-.065a3.58,3.58,0,0,0-.064-.517c-.327.788-1.428,2.873-1.575,3.083Z" transform="translate(0 25.864)" fill="#2f2e41"/><path d="M35.127,193.19a1.026,1.026,0,0,1-1.438.2.965.965,0,0,1-.134-.122l-3.345,1.455.326-1.867,3.126-1.095a1.032,1.032,0,0,1,1.465,1.433Z" transform="translate(0 25.864)" fill="#a0616a"/><path d="M32.9,193.773l-7.77,3.461-.016-.006-8.856-3.155a2.917,2.917,0,0,1-1.308-3.784h0a2.914,2.914,0,0,1,3.856-1.454,2.8,2.8,0,0,1,.3.159l6.59,3.969,6.391-.828Z" transform="translate(0 25.864)" fill="#3f3d56"/><path d="M36.15,170.987c-2.937-6.5-2.829-14.732,1.73-20.214a32.847,32.847,0,0,0,11.757,19.246c2.347,1.853,5.15,3.67,5.791,6.591a7.34,7.34,0,0,1-1.144,5.322A21.754,21.754,0,0,1,50.6,186.1l-.151.439C44.584,182.482,39.087,177.484,36.15,170.987Z" transform="translate(0 25.864)" fill="#f0f0f0"/><path d="M38.006,150.852a28.078,28.078,0,0,0,2.281,17.124,12.083,12.083,0,0,0,2.09,3.159,6.928,6.928,0,0,0,3.149,1.846,14.4,14.4,0,0,1,3.291,1.114,4.251,4.251,0,0,1,1.984,2.851,11.034,11.034,0,0,1-.186,4.386,10.838,10.838,0,0,0-.2,4.875c.053.195-.253.266-.306.071-.764-2.8.722-5.569.514-8.388a4.3,4.3,0,0,0-1.718-3.371,11.134,11.134,0,0,0-3.32-1.195,7.4,7.4,0,0,1-3.146-1.69,11.192,11.192,0,0,1-2.205-3.067,27.282,27.282,0,0,1-2.617-8.1,28.6,28.6,0,0,1,.093-9.706c.036-.2.336-.1.3.093Z" transform="translate(0 25.864)" fill="#fff"/><path d="M39.367,166.309a4.212,4.212,0,0,1-5.036-2.094c-.092-.181.184-.331.276-.151A3.9,3.9,0,0,0,39.3,166c.192-.063.263.244.071.306Z" transform="translate(0 25.864)" fill="#fff"/><path d="M44.942,172.891a8.115,8.115,0,0,0,.657-5.88c-.053-.2.254-.267.306-.072a8.445,8.445,0,0,1-.7,6.118c-.1.179-.361.012-.267-.166Z" transform="translate(0 25.864)" fill="#fff"/><path d="M37.494,157.35a2.383,2.383,0,0,0,1.869-1.276c.093-.18.359-.013.267.166a2.674,2.674,0,0,1-2.064,1.416.163.163,0,0,1-.189-.117A.158.158,0,0,1,37.494,157.35Z" transform="translate(0 25.864)" fill="#fff"/><path d="M62.02,150.836c-.055.114-.109.228-.163.345a31.428,31.428,0,0,0-1.792,4.768c-.038.126-.075.254-.109.381a33.076,33.076,0,0,0-1.006,12.147,32.1,32.1,0,0,0,.872,4.806c.569,2.179,1.36,4.5,1.182,6.672a5.489,5.489,0,0,1-.091.676l-9.92,6.06c-.029,0-.057.007-.087.009l-.385.261c-.027-.08-.053-.164-.08-.244-.016-.046-.03-.094-.045-.14s-.02-.062-.031-.09l-.008-.029c-.011-.028-.018-.055-.027-.08q-.222-.7-.435-1.4v-.006a47.25,47.25,0,0,1-2.049-10.987c-.006-.111-.013-.225-.015-.339a30.645,30.645,0,0,1,.173-5,26.938,26.938,0,0,1,.465-2.7,22.549,22.549,0,0,1,2.612-6.55,17.91,17.91,0,0,1,10.594-8.462C61.79,150.893,61.9,150.864,62.02,150.836Z" transform="translate(0 25.864)" fill="#f0f0f0"/><path d="M62.075,150.976a28.075,28.075,0,0,0-8.49,15.045,12.113,12.113,0,0,0-.233,3.782,6.942,6.942,0,0,0,1.4,3.369,14.351,14.351,0,0,1,1.957,2.871,4.244,4.244,0,0,1-.132,3.47,11.04,11.04,0,0,1-2.789,3.391,10.836,10.836,0,0,0-3.1,3.769c-.075.188-.362.061-.287-.127,1.078-2.7,3.929-4.012,5.46-6.388a4.3,4.3,0,0,0,.658-3.727,11.12,11.12,0,0,0-1.931-2.952,7.4,7.4,0,0,1-1.5-3.244,11.19,11.19,0,0,1,.087-3.776,27.254,27.254,0,0,1,2.788-8.045,28.562,28.562,0,0,1,5.918-7.693C62.039,150.584,62.222,150.84,62.075,150.976Z" transform="translate(0 25.864)" fill="#fff"/><path d="M53.855,164.137a4.214,4.214,0,0,1-2.761-4.705c.036-.2.347-.153.311.046a3.9,3.9,0,0,0,2.577,4.372c.191.065.063.352-.127.287Z" transform="translate(0 25.864)" fill="#fff"/><path d="M54.343,172.749a8.121,8.121,0,0,0,4.065-4.3c.076-.188.363-.06.287.127a8.442,8.442,0,0,1-4.239,4.466c-.183.086-.3-.208-.113-.293Z" transform="translate(0 25.864)" fill="#fff"/><path d="M57.753,155.856a2.387,2.387,0,0,0,2.261.106c.182-.088.294.206.113.293a2.67,2.67,0,0,1-2.5-.112.162.162,0,0,1-.08-.207.158.158,0,0,1,.207-.08Z" transform="translate(0 25.864)" fill="#fff"/><path d="M100.057,174.4c-2.938-6.5-2.829-14.732,1.729-20.214a32.851,32.851,0,0,0,11.758,19.247c2.347,1.853,5.15,3.67,5.791,6.59a7.341,7.341,0,0,1-1.144,5.323,21.82,21.82,0,0,1-3.688,4.169l-.151.439C108.49,185.894,102.994,180.9,100.057,174.4Z" transform="translate(0 25.864)" fill="#f0f0f0"/><path d="M101.913,154.264a28.079,28.079,0,0,0,2.28,17.125,12.1,12.1,0,0,0,2.091,3.159,6.937,6.937,0,0,0,3.149,1.846,14.364,14.364,0,0,1,3.291,1.114,4.247,4.247,0,0,1,1.984,2.85,11.034,11.034,0,0,1-.186,4.386,10.839,10.839,0,0,0-.2,4.875c.053.195-.253.267-.306.072-.764-2.8.722-5.569.514-8.388a4.3,4.3,0,0,0-1.719-3.372,11.173,11.173,0,0,0-3.319-1.2,7.389,7.389,0,0,1-3.146-1.69,11.162,11.162,0,0,1-2.2-3.067,27.253,27.253,0,0,1-2.617-8.1,28.57,28.57,0,0,1,.093-9.705c.036-.2.336-.1.3.092Z" transform="translate(0 25.864)" fill="#fff"/><path d="M103.274,169.722a4.214,4.214,0,0,1-5.037-2.095c-.091-.18.185-.331.276-.15a3.9,3.9,0,0,0,4.69,1.939c.192-.063.262.243.071.306Z" transform="translate(0 25.864)" fill="#fff"/><path d="M108.849,176.3a8.123,8.123,0,0,0,.657-5.881c-.053-.195.253-.267.306-.071a8.45,8.45,0,0,1-.7,6.118c-.095.179-.361.012-.267-.166Z" transform="translate(0 25.864)" fill="#fff"/><path d="M101.4,160.762a2.384,2.384,0,0,0,1.869-1.275c.092-.18.359-.013.267.166a2.674,2.674,0,0,1-2.064,1.416.164.164,0,0,1-.189-.118A.159.159,0,0,1,101.4,160.762Z" transform="translate(0 25.864)" fill="#fff"/><path d="M125.927,154.249c-.055.114-.11.228-.163.344a31.44,31.44,0,0,0-1.792,4.769c-.039.126-.075.254-.11.38a33.1,33.1,0,0,0-1,12.147,32.135,32.135,0,0,0,.872,4.807c.569,2.179,1.36,4.5,1.181,6.671a5.477,5.477,0,0,1-.09.677L114.9,190.1l-.087.01-.385.26c-.027-.08-.054-.163-.08-.243-.016-.046-.03-.094-.046-.14s-.019-.063-.03-.091l-.008-.029c-.011-.027-.018-.054-.027-.08q-.222-.7-.435-1.4v-.006a47.335,47.335,0,0,1-2.049-10.987c0-.111-.013-.225-.014-.339a30.633,30.633,0,0,1,.173-5,27.192,27.192,0,0,1,.464-2.7,22.545,22.545,0,0,1,2.613-6.549,17.908,17.908,0,0,1,10.594-8.463C125.7,154.305,125.81,154.276,125.927,154.249Z" transform="translate(0 25.864)" fill="#f0f0f0"/><path d="M125.981,154.388a28.079,28.079,0,0,0-8.489,15.046,12.077,12.077,0,0,0-.233,3.781,6.936,6.936,0,0,0,1.4,3.37,14.415,14.415,0,0,1,1.957,2.87,4.25,4.25,0,0,1-.132,3.471,11.039,11.039,0,0,1-2.789,3.39,10.837,10.837,0,0,0-3.1,3.77c-.075.188-.363.06-.288-.127,1.078-2.7,3.93-4.013,5.461-6.388a4.305,4.305,0,0,0,.658-3.727,11.169,11.169,0,0,0-1.932-2.953,7.408,7.408,0,0,1-1.494-3.243,11.17,11.17,0,0,1,.087-3.777,27.219,27.219,0,0,1,2.788-8.044,28.578,28.578,0,0,1,5.917-7.694C125.946,154,126.129,154.252,125.981,154.388Z" transform="translate(0 25.864)" fill="#fff"/><path d="M117.762,167.549a4.212,4.212,0,0,1-2.761-4.7c.036-.2.347-.153.311.046a3.9,3.9,0,0,0,2.577,4.371c.191.066.063.353-.127.287Z" transform="translate(0 25.864)" fill="#fff"/><path d="M118.25,176.161a8.121,8.121,0,0,0,4.065-4.3c.076-.187.363-.06.287.128a8.44,8.44,0,0,1-4.239,4.465c-.183.086-.3-.207-.113-.293Z" transform="translate(0 25.864)" fill="#fff"/><path d="M121.66,159.268a2.383,2.383,0,0,0,2.26.107c.183-.088.3.205.114.293a2.676,2.676,0,0,1-2.5-.112.162.162,0,0,1-.08-.207A.159.159,0,0,1,121.66,159.268Z" transform="translate(0 25.864)" fill="#fff"/><path d="M40.653,217.09h75.568V173.341a1.237,1.237,0,0,0-1.236-1.236h-73.1a1.237,1.237,0,0,0-1.236,1.236Z" transform="translate(0 25.864)" fill="#cacaca"/><rect x="42.988" y="199.678" width="70.899" height="40.25" fill="#fff"/><path d="M40.587,215.907v5.4a1.7,1.7,0,0,0,1.7,1.7H70.183v10.654h-.371a.221.221,0,0,0-.221.221h0v.741a.221.221,0,0,0,.221.222H87.127a.221.221,0,0,0,.222-.221h0v-.741a.221.221,0,0,0-.222-.221h-.37V223.01h27.891a1.705,1.705,0,0,0,1.7-1.7h0v-5.4Z" transform="translate(0 25.864)" fill="#3f3d56"/><path d="M65.034,193.72H47.756a.454.454,0,0,1-.454-.454v-7.011a.454.454,0,0,1,.454-.454H65.034a.455.455,0,0,1,.454.454v7.011A.455.455,0,0,1,65.034,193.72Z" transform="translate(0 25.864)" fill="#007bff"/><path d="M63.389,197.083H49.4a.545.545,0,0,1,0-1.09H63.389A.545.545,0,0,1,63.389,197.083Z" transform="translate(0 25.864)" fill="#e4e4e4"/><path d="M63.389,199.581H49.4a.545.545,0,1,1,0-1.09H63.389A.545.545,0,0,1,63.389,199.581Z" transform="translate(0 25.864)" fill="#e4e4e4"/><path d="M63.389,202.078H49.4a.545.545,0,0,1,0-1.09H63.389A.545.545,0,0,1,63.389,202.078Z" transform="translate(0 25.864)" fill="#e4e4e4"/><path d="M87.076,193.72H69.8a.455.455,0,0,1-.454-.454v-7.011a.455.455,0,0,1,.454-.454H87.076a.455.455,0,0,1,.454.454v7.011A.455.455,0,0,1,87.076,193.72Z" transform="translate(0 25.864)" fill="#007bff"/><path d="M85.431,197.083H71.443a.545.545,0,0,1,0-1.09H85.431A.545.545,0,0,1,85.431,197.083Z" transform="translate(0 25.864)" fill="#e4e4e4"/><path d="M85.431,199.581H71.443a.545.545,0,0,1,0-1.09H85.431A.545.545,0,0,1,85.431,199.581Z" transform="translate(0 25.864)" fill="#e4e4e4"/><path d="M85.431,202.078H71.443a.545.545,0,0,1,0-1.09H85.431A.545.545,0,0,1,85.431,202.078Z" transform="translate(0 25.864)" fill="#e4e4e4"/><path d="M109.118,193.72H91.84a.455.455,0,0,1-.454-.454v-7.011a.455.455,0,0,1,.454-.454h17.278a.455.455,0,0,1,.454.454v7.011A.455.455,0,0,1,109.118,193.72Z" transform="translate(0 25.864)" fill="#007bff"/><path d="M107.473,197.083H93.485a.545.545,0,0,1,0-1.09h13.988A.545.545,0,0,1,107.473,197.083Z" transform="translate(0 25.864)" fill="#e4e4e4"/><path d="M107.473,199.581H93.485a.545.545,0,0,1,0-1.09h13.988A.545.545,0,0,1,107.473,199.581Z" transform="translate(0 25.864)" fill="#e4e4e4"/><path d="M107.473,202.078H93.485a.545.545,0,0,1,0-1.09h13.988A.545.545,0,0,1,107.473,202.078Z" transform="translate(0 25.864)" fill="#e4e4e4"/><path d="M138.641,185.9l.047,8.787.193-.011.183,3.253-.358.02.01,1.954.287,0,.058,3.256-.326,0,.155,28.674a2.834,2.834,0,0,1-2.816,2.847l-31.674.172a2.833,2.833,0,0,1-2.847-2.816L101.3,186.1a2.834,2.834,0,0,1,2.816-2.847l31.674-.171A2.834,2.834,0,0,1,138.641,185.9Z" transform="translate(0 25.864)" fill="#3f3d56"/><path d="M136.12,232.87l-31.786.172a.874.874,0,0,1-.878-.868l-.25-46.239a.874.874,0,0,1,.868-.877l31.785-.173a.875.875,0,0,1,.878.869l.251,46.238A.874.874,0,0,1,136.12,232.87Z" transform="translate(0 25.864)" fill="#fff"/><circle cx="119.841" cy="209.897" r="0.241" fill="#fff"/><path d="M129.295,197.9H110.9a.484.484,0,0,1-.483-.483v-7.465a.483.483,0,0,1,.483-.483h18.4a.483.483,0,0,1,.483.483v7.465A.483.483,0,0,1,129.295,197.9Z" transform="translate(0 25.864)" fill="#007bff"/><path d="M127.543,201.481H112.65a.581.581,0,0,1,0-1.161h14.893A.581.581,0,0,1,127.543,201.481Z" transform="translate(0 25.864)" fill="#e4e4e4"/><path d="M127.543,204.14H112.65a.58.58,0,1,1,0-1.16h14.893A.58.58,0,0,1,127.543,204.14Z" transform="translate(0 25.864)" fill="#e4e4e4"/><path d="M127.543,206.8H112.65a.581.581,0,0,1,0-1.161h14.893A.581.581,0,0,1,127.543,206.8Z" transform="translate(0 25.864)" fill="#e4e4e4"/><path d="M129.295,219.559H110.9a.483.483,0,0,1-.483-.483v-7.465a.483.483,0,0,1,.483-.483h18.4a.483.483,0,0,1,.483.483v7.465A.483.483,0,0,1,129.295,219.559Z" transform="translate(0 25.864)" fill="#007bff"/><path d="M127.543,223.14H112.65a.58.58,0,1,1,0-1.16h14.893A.58.58,0,0,1,127.543,223.14Z" transform="translate(0 25.864)" fill="#e4e4e4"/><path d="M127.543,225.8H112.65a.581.581,0,0,1,0-1.161h14.893A.581.581,0,0,1,127.543,225.8Z" transform="translate(0 25.864)" fill="#e4e4e4"/><path d="M127.543,228.459H112.65a.581.581,0,0,1,0-1.161h14.893A.581.581,0,0,1,127.543,228.459Z" transform="translate(0 25.864)" fill="#e4e4e4"/><path d="M47.557,232.592,47.5,207.269h.231l-.011-4.657h-.231l-.019-7.775a2.211,2.211,0,0,0-2.216-2.206h0l-16.456.04a2.211,2.211,0,0,0-2.206,2.217h0l.013,5.421-.367.009.081,3.256.294-.007,0,.718-.313.008.081,3.257.24-.006.06,25.1a2.208,2.208,0,0,0,2.209,2.206H28.9l16.455-.04A2.213,2.213,0,0,0,47.557,232.592Z" transform="translate(0 25.864)" fill="#3f3d56"/><path d="M28.393,233.834a1.062,1.062,0,0,1-.7-1L27.6,194.685a1.06,1.06,0,0,1,1.057-1.062l3.5-.009-.043.107a1.22,1.22,0,0,0,1.135,1.68l7.77-.019a1.236,1.236,0,0,0,.949-.589,1.213,1.213,0,0,0,.085-1.1l-.044-.106,3.616-.009a1.06,1.06,0,0,1,1.062,1.057l.088,36.4a2.815,2.815,0,0,1-2.8,2.818l-15.217.037A1.071,1.071,0,0,1,28.393,233.834Z" transform="translate(0 25.864)" fill="#fff"/><circle cx="34.387" cy="220.142" r="0.241" fill="#fff"/><path d="M43.7,206.245H31.2a.33.33,0,0,1-.328-.329v-5.073a.328.328,0,0,1,.328-.328H43.7a.328.328,0,0,1,.329.328v5.073A.33.33,0,0,1,43.7,206.245Z" transform="translate(0 25.864)" fill="#007bff"/><path d="M42.509,208.678H32.388a.395.395,0,0,1,0-.789H42.509A.4.4,0,0,1,42.509,208.678Z" transform="translate(0 25.864)" fill="#e4e4e4"/><path d="M42.509,210.485H32.388a.394.394,0,1,1,0-.788H42.509A.394.394,0,0,1,42.509,210.485Z" transform="translate(0 25.864)" fill="#e4e4e4"/><path d="M42.509,212.293H32.388a.395.395,0,0,1,0-.789H42.509A.4.4,0,0,1,42.509,212.293Z" transform="translate(0 25.864)" fill="#e4e4e4"/><path d="M43.7,221.446H31.2a.33.33,0,0,1-.328-.329v-5.073a.328.328,0,0,1,.328-.328H43.7a.328.328,0,0,1,.329.328v5.073A.33.33,0,0,1,43.7,221.446Z" transform="translate(0 25.864)" fill="#007bff"/><path d="M42.509,223.879H32.388a.395.395,0,0,1,0-.789H42.509A.4.4,0,0,1,42.509,223.879Z" transform="translate(0 25.864)" fill="#e4e4e4"/><path d="M42.509,225.686H32.388a.394.394,0,1,1,0-.788H42.509A.394.394,0,0,1,42.509,225.686Z" transform="translate(0 25.864)" fill="#e4e4e4"/><path d="M42.509,227.494H32.388a.395.395,0,0,1,0-.789H42.509A.4.4,0,0,1,42.509,227.494Z" transform="translate(0 25.864)" fill="#e4e4e4"/><polygon points="15.753 259.326 17.111 259.326 17.757 254.086 15.752 254.086 15.753 259.326" fill="#a0616a"/><path d="M15.406,233.019h.382l1.493-.608.8.607h0a1.706,1.706,0,0,1,1.705,1.705v.056h-4.38Z" transform="translate(0 25.864)" fill="#2f2e41"/><polygon points="21.017 258.47 22.342 258.769 24.126 253.8 22.171 253.359 21.017 258.47" fill="#a0616a"/><path d="M20.776,232.1l.373.084,1.59-.263.647.768h0a1.706,1.706,0,0,1,1.288,2.039l-.013.054-4.272-.965Z" transform="translate(0 25.864)" fill="#2f2e41"/><path d="M14.032,201.43a9.86,9.86,0,0,0,.153,6.243l.309,12.6s-.46,8.262,1.025,11.17h2.154l1.066-11.925.134-8,4.618,6.753L20.55,231.248l2.651.237L27.974,217.4,22.085,203.73Z" transform="translate(0 25.864)" fill="#2f2e41"/><path d="M22.469,204.134l-7.832-1.253A1.5,1.5,0,0,1,13.669,201a1.533,1.533,0,0,1,.087-.213l.355-.711-.138-7.464a5.528,5.528,0,0,1,2.685-4.836l.763-.457.386-.98,3.56.086.01,1.286,1.275,2.033v.008l-.08,11.063-.352,1.142.532,1.328Z" transform="translate(0 25.864)" fill="#3f3d56"/><circle cx="19.913" cy="207.752" r="3.234" fill="#a0616a"/><path d="M16.545,182.593a4.275,4.275,0,0,1,0-1.387,3.881,3.881,0,0,1,1.643-2.7,1.19,1.19,0,0,1,.59-.234.508.508,0,0,1,.512.309,1.059,1.059,0,0,1,.6-.593,1.861,1.861,0,0,1,.852-.115,3.115,3.115,0,0,1,2.6,1.857c.086.2.327-.552.437-.359a.861.861,0,0,0,.488.43c.215.06.3.943.386.737a.983.983,0,0,1-.514,1.291,1,1,0,0,1-.425.079,5.385,5.385,0,0,1-.642-.123,1.6,1.6,0,0,0-1.754,1.2,2.109,2.109,0,0,0-.28-.621.715.715,0,0,0-.576-.317.807.807,0,0,0-.555.319c-.142.167-.249.362-.392.528-.421.488-.99,1.626-1.59,1.543C17.452,184.373,16.677,183.148,16.545,182.593Z" transform="translate(0 25.864)" fill="#2f2e41"/><path d="M31.969,201.773a1.025,1.025,0,0,1-1.408-.7l-3.629-.366,1.2-1.47,3.263.574a1.032,1.032,0,0,1,.577,1.966Z" transform="translate(0 25.864)" fill="#a0616a"/><path d="M29.736,201.19l-8.469-.78-.012-.013-6.181-7.083a2.916,2.916,0,0,1,.709-3.94h0a2.913,2.913,0,0,1,4.074.617,2.8,2.8,0,0,1,.186.286l3.808,6.686,5.979,2.4Z" transform="translate(0 25.864)" fill="#3f3d56"/><path d="M160.816,234.972H11.861a.185.185,0,0,1,0-.369H160.816a.185.185,0,0,1,0,.369Z" transform="translate(0 25.864)" fill="#ccc"/><path d="M134.912,201.96a.951.951,0,0,0,1.037-.855,1.035,1.035,0,0,0,0-.167l3.09-1.361-1.474-.951-2.709,1.437a.956.956,0,0,0,.055,1.9Z" transform="translate(0 25.864)" fill="#ffb6b6"/><path d="M136.729,200.628l-.549-1.91,5.555-2.788,3.277-6.314a2.4,2.4,0,0,1,3.23-1.023,2.423,2.423,0,0,1,.37.237h0a2.4,2.4,0,0,1,.416,3.363l-4.928,6.318Z" transform="translate(0 25.864)" fill="#e4e4e4"/></svg>