<svg id="Layer_1" data-name="Layer 1" xmlns="http://www.w3.org/2000/svg" viewBox="0 0 376.2 169.444"><title>storedukani</title><path d="M95,102.556s72.369,70.75,147,0L235.5,126.5" transform="translate(-26 31.944)" fill="none" stroke="#000" stroke-miterlimit="10" stroke-width="7"/><path d="M367.815,22.743v5.986a15.735,15.735,0,0,1-27.974,7.255,15.73,15.73,0,0,1-24.841,0,15.73,15.73,0,0,1-24.841,0,15.729,15.729,0,0,1-27.974-7.273V22.743a9.971,9.971,0,0,1,2.206-4.568L281.68-2a6.6,6.6,0,0,1,5.032-2.316h56.576A6.6,6.6,0,0,1,348.32-2l17.289,20.171A9.971,9.971,0,0,1,367.815,22.743Z" transform="translate(-26 31.944)" fill="#c72ad3"/><path d="M367.815,22.743a9.971,9.971,0,0,0-2.206-4.568L348.32-2a6.6,6.6,0,0,0-5.032-2.316H286.712A6.6,6.6,0,0,0,281.68-2L264.391,18.175A9.978,9.978,0,0,0,262,24.643v1.686a15.733,15.733,0,0,0,28.159,9.655,15.73,15.73,0,0,0,24.841,0,15.73,15.73,0,0,0,24.841,0A15.737,15.737,0,0,0,368,26.329V24.643A10.047,10.047,0,0,0,367.815,22.743Zm-6.44,3.586a9.108,9.108,0,0,1-18.216,0,3.313,3.313,0,1,0-6.625,0,9.113,9.113,0,0,1-18.226,0,3.313,3.313,0,1,0-6.625,0,9.109,9.109,0,0,1-18.217,0,3.313,3.313,0,1,0-6.625,0,9.108,9.108,0,0,1-18.216,0V24.643a3.288,3.288,0,0,1,.8-2.159l17.29-20.172h56.576l17.29,20.172a3.288,3.288,0,0,1,.8,2.159Zm3.308,62.108h-3.308V48.688a3.313,3.313,0,0,0-6.625,0V88.437H315V55.312a6.623,6.623,0,0,0-6.625-6.624H288.5a6.623,6.623,0,0,0-6.625,6.624V88.437H275.25V48.688a3.313,3.313,0,0,0-6.625,0V88.437h-3.308a3.313,3.313,0,1,0,0,6.625h99.366a3.313,3.313,0,1,0,0-6.625Zm-56.308,0H288.5V55.312h19.875Zm33.3-39.749h-13.37a6.653,6.653,0,0,0-6.681,6.624V75.187a6.654,6.654,0,0,0,6.681,6.626h13.37a6.654,6.654,0,0,0,6.681-6.626V55.312A6.653,6.653,0,0,0,341.676,48.688Zm-.176,26.5H328.25V55.312H341.5Z" transform="translate(-26 31.944)"/><path d="M132,28.64v1.69A15.719,15.719,0,0,1,121.95,45H110.6a15.746,15.746,0,0,1-6.76-5.01A15.629,15.629,0,0,1,97.1,45H85.75A15.6,15.6,0,0,1,79,39.99,15.6,15.6,0,0,1,72.25,45H60.9a15.629,15.629,0,0,1-6.74-5.01A15.6,15.6,0,0,1,47.44,45H36.04A15.768,15.768,0,0,1,26,30.33V28.64a9.965,9.965,0,0,1,2.39-6.47L45.68,2A6.624,6.624,0,0,1,50.71-.31h56.58a6.585,6.585,0,0,1,5.03,2.32l17.29,20.16A9.965,9.965,0,0,1,132,28.64Z" transform="translate(-26 31.944)" fill="#4905cc"/><path d="M129.61,20.835,112.32.079a6.508,6.508,0,0,0-5.03-2.389H50.71A6.548,6.548,0,0,0,45.68.068L28.39,20.835A10.441,10.441,0,0,0,26,27.5v1.739a16.351,16.351,0,0,0,6.08,12.788,15.722,15.722,0,0,0,3.96,2.317,15.32,15.32,0,0,0,11.4,0,15.655,15.655,0,0,0,6.72-5.159,15.672,15.672,0,0,0,6.74,5.159,15.305,15.305,0,0,0,11.35,0A15.641,15.641,0,0,0,79,39.182a15.641,15.641,0,0,0,6.75,5.159,15.305,15.305,0,0,0,11.35,0,15.672,15.672,0,0,0,6.74-5.159,15.787,15.787,0,0,0,6.76,5.159,15.335,15.335,0,0,0,5.67,1.091,15.116,15.116,0,0,0,5.68-1.091A16.18,16.18,0,0,0,132,29.236V27.5A10.441,10.441,0,0,0,129.61,20.835Zm-4.24,8.4a9.109,9.109,0,1,1-18.21,0,3.316,3.316,0,1,0-6.63,0,9.114,9.114,0,1,1-18.22,0,3.311,3.311,0,1,0-6.62,0,9.114,9.114,0,1,1-18.22,0,3.316,3.316,0,1,0-6.63,0,9.109,9.109,0,1,1-18.21,0V27.5a3.419,3.419,0,0,1,.79-2.214L50.71,4.506h56.58l17.29,20.777a3.419,3.419,0,0,1,.79,2.214Zm3.32,63.948h-3.32V52.258a3.311,3.311,0,1,0-6.62,0V93.184H39.25V52.258a3.311,3.311,0,1,0-6.62,0V93.184H29.31a3.409,3.409,0,0,0,0,6.816h99.38a3.409,3.409,0,0,0,0-6.816ZM108.81,52.258a3.358,3.358,0,0,0-3.31,3.408V79.542h-53V55.666a3.311,3.311,0,1,0-6.62,0V79.542a6.715,6.715,0,0,0,6.62,6.816h53a6.715,6.715,0,0,0,6.62-6.816V55.666A3.358,3.358,0,0,0,108.81,52.258Z" transform="translate(-26 31.944)"/><path d="M300-4C229.431-59,161-4,161-4l7.5-24.5" transform="translate(-26 31.944)" fill="none" stroke="#000" stroke-miterlimit="10" stroke-width="7"/><polygon points="304.534 112.387 306.043 132.707 332.55 140.209 332.125 118.179 304.534 112.387" fill="#8328a5" stroke="#000" stroke-miterlimit="10" stroke-width="0.4"/><path d="M337.927,74.623l-7.393,5.724s6.033,1.709,7.985,2.089,19.606,3.7,19.606,3.7L371.876,75.6l-29.01-5.507Z" transform="translate(-26 31.944)" fill="#6a55a5" stroke="#000" stroke-miterlimit="10" stroke-width="0.4"/><polygon points="324.985 114.975 330.994 109.874 351.571 106.686 348.21 110.216 347.294 112.734 326.097 115.89 324.985 114.975" fill="#b180ff" stroke="#000" stroke-miterlimit="10" stroke-width="0.4"/><path d="M367.545,104.785,351,106.456l-.236-23.219s18.591-.589,23.235-4.966l-1.18,25.511Z" transform="translate(-26 31.944)" fill="#cb5df4" stroke="#000" stroke-miterlimit="10" stroke-width="0.4"/><polygon points="353.417 131.124 353.417 148.944 370.716 146.56 370.716 127.485 353.417 131.124" fill="#7b42c6" stroke="#000" stroke-miterlimit="10" stroke-width="0.4"/><polygon points="341.972 123.022 353.417 131.075 353.417 148.944 342.505 139.507 341.972 123.022" fill="#6f2fc1" stroke="#000" stroke-miterlimit="10" stroke-width="0.4"/><polygon points="341.972 123.022 342.549 122.937 362.022 120.078 370.716 127.485 353.417 131.093 341.972 123.022" fill="#7623b7" stroke="#000" stroke-miterlimit="10" stroke-width="0.4"/><polygon points="345.827 109.219 357.665 107.649 375.326 109.953 366.997 112.821 345.827 109.219" fill="#d499e0" stroke="#000" stroke-miterlimit="10" stroke-width="0.4"/><path d="M392.28,95.54l9.049-2.754s.887-5.982.621-6.647-.621-7.786-.621-7.786L392.9,81.107Z" transform="translate(-26 31.944)" fill="#841ddd" stroke="#000" stroke-miterlimit="10" stroke-width="0.4"/><path d="M372.053,82.626a17.41,17.41,0,0,0,0,4.368,8.759,8.759,0,0,1,.355,1.14l.621,3.513L392.28,95.54s.8-3.228.533-4.463.088-9.97.088-9.97l-21.025-4.368Z" transform="translate(-26 31.944)" fill="#c26aea" stroke="#000" stroke-miterlimit="10" stroke-width="0.4"/><path d="M340.737,103.326s.088,9.049.709,10.068c0,0,9.848,4.46,12.509,1.147l-.532-11.215Z" transform="translate(-26 31.944)" fill="#870ac1" stroke="#000" stroke-miterlimit="10" stroke-width="0.4"/><path d="M347.657,96.3s10.911.285,11.444,0-5.767,7.691-5.767,7.691-8.516,2.849-12.6-.665Z" transform="translate(-26 31.944)" fill="#7d0faa" stroke="#000" stroke-miterlimit="10" stroke-width="0.4"/><polygon points="333.101 128.244 333.133 139.307 327.955 146.476 327.334 135.936 333.101 128.244" fill="#bf4cb5" stroke="#000" stroke-miterlimit="10" stroke-width="0.4"/><path d="M361.6,57.272s-15.713-1.233-20.858,1.046a12.421,12.421,0,0,1-3.371.664s-1.6,7.312,1.242,18.706h23.953Z" transform="translate(-26 31.944)" fill="#9f4add" stroke="#000" stroke-miterlimit="10" stroke-width="0.4"/><polygon points="336.561 109.633 343.747 105.74 343.126 89.882 335.23 89.19 336.561 109.633" fill="#7a43c9" stroke="#000" stroke-miterlimit="10" stroke-width="0.4"/><path d="M379.417,78.353,367.174,77.4s-1.242-6.742-.8-8.736-.088-2.184-.088-2.184l11.976,1.234.47-.063Z" transform="translate(-26 31.944)" fill="#8d15aa" stroke="#000" stroke-miterlimit="10" stroke-width="0.4"/><path d="M387.49,66.484a7.821,7.821,0,0,0,0,2.943,22.032,22.032,0,0,1,.532,4.558c0,.57-.355,2.754-.355,2.754l-8.6,1.614s-1.331-7.217-.621-8.071-.178-2.564-.178-2.564Z" transform="translate(-26 31.944)" fill="#7810dd" stroke="#000" stroke-miterlimit="10" stroke-width="0.4"/><polygon points="361.49 98.428 345.876 97.289 340.287 98.428 352.263 99.663 361.49 98.428" fill="#7c18c9" stroke="#000" stroke-miterlimit="10" stroke-width="0.4"/><polygon points="352.263 86.087 335.23 84.944 336.383 98.428 353.417 98.428 352.973 86.087 352.263 86.087" fill="#3d4bc4" stroke="#000" stroke-miterlimit="10" stroke-width="0.4"/><path d="M382.061,66.225l-2.644.259a22.044,22.044,0,0,1-1.154-5.458c0-2.108.266-5.705,0-6.883h2.75S381.157,65.1,382.061,66.225Z" transform="translate(-26 31.944)" fill="#8f12e0" stroke="#000" stroke-miterlimit="10" stroke-width="0.4"/></svg>