<svg id="Layer_1" data-name="Layer 1" xmlns="http://www.w3.org/2000/svg" xmlns:xlink="http://www.w3.org/1999/xlink" viewBox="0 0 603.5 101.42"><defs><clipPath id="clip-path" transform="translate(1 -1)"><rect x="0.99" y="1" width="598.49" height="100" fill="none"/></clipPath><linearGradient id="linear-gradient" x1="44.93" y1="57.43" x2="460.51" y2="57.43" gradientUnits="userSpaceOnUse"><stop offset="0.2" stop-color="#d3eaff"/><stop offset="0.46" stop-color="#cecbe6"/><stop offset="1" stop-color="#bf5bfc" stop-opacity="0.1"/></linearGradient><linearGradient id="linear-gradient-2" x1="-10.31" y1="62.15" x2="-9.46" y2="62.15" gradientUnits="userSpaceOnUse"><stop offset="0.2" stop-color="#f1e9ff"/><stop offset="0.37" stop-color="#ece4ff"/><stop offset="0.58" stop-color="#dfd5ff"/><stop offset="0.59" stop-color="#ded4ff"/><stop offset="0.99" stop-color="#fbe9ff"/></linearGradient><linearGradient id="linear-gradient-3" x1="71.15" y1="77.49" x2="475.87" y2="77.49" gradientUnits="userSpaceOnUse"><stop offset="0.2" stop-color="#e9f6ff"/><stop offset="0.33" stop-color="#e7f1ff"/><stop offset="0.48" stop-color="#e2e2ff"/><stop offset="0.59" stop-color="#ded4ff"/><stop offset="0.99" stop-color="#fbe9ff"/></linearGradient><linearGradient id="linear-gradient-4" x1="527.83" y1="94.77" x2="601.44" y2="94.77" xlink:href="#linear-gradient-3"/><linearGradient id="linear-gradient-5" x1="4.35" y1="51.25" x2="225.3" y2="51.25" xlink:href="#linear-gradient-3"/><linearGradient id="linear-gradient-6" x1="-126.79" y1="51.25" x2="-126.31" y2="51.25" xlink:href="#linear-gradient-2"/><linearGradient id="linear-gradient-7" x1="0.99" y1="65.13" x2="56.71" y2="65.13" gradientUnits="userSpaceOnUse"><stop offset="0" stop-color="#546fae"/><stop offset="0.46" stop-color="#6d6db9"/><stop offset="1" stop-color="#b37fff"/></linearGradient><linearGradient id="linear-gradient-8" x1="484.68" y1="25.36" x2="584.54" y2="75.58" gradientUnits="userSpaceOnUse"><stop offset="0" stop-color="#2e22d6"/><stop offset="0.46" stop-color="#8f7fc2"/><stop offset="1" stop-color="#bf78fc"/></linearGradient><linearGradient id="linear-gradient-9" x1="294.19" y1="50.52" x2="357.77" y2="50.52" xlink:href="#linear-gradient-8"/></defs><title>top3</title><g clip-path="url(#clip-path)"><path d="M460.51,101.5H44.93l1.8-.5s14.41-9.15,37.66-21.53a739.24,739.24,0,0,1,87.06-39.62C219.49,21.89,274,8.56,320.61,15c1.77.24,3.53.52,5.28.82A128,128,0,0,1,361,27c20.56,10.19,35,19.45,45.81,27.79,27.72,21.41,31.37,36.76,52.42,46.15C459.65,101.13,460.07,101.32,460.51,101.5Z" transform="translate(1 -1)" fill="url(#linear-gradient)"/><path d="M602.5,32.92V101.5H528.71a503.9,503.9,0,0,1-60.8,0H214.32c1.57-.07,3.13-.14,4.69-.23l1.63-.09A513.64,513.64,0,0,0,316.74,86q8.19-2.07,15.91-4.29l4-1.14q3.51-1,6.92-2.08h0q8.3-2.55,15.92-5.15c19.59-6.66,35.7-13.33,47.36-18.59C420.46,48.64,428,44.43,428,44.43,516.35,14.38,570,18.52,602.5,32.92Z" transform="translate(1 -1)" fill="url(#linear-gradient-2)"/><path d="M467.91,101.5H63.19c9.75-5.8,20.66-11.76,32.49-17.43,26.46-12.66,57.53-23.84,90.68-28.4,30.5-4.2,62.76-2.79,94.78,8.25q7.42,2.56,14.79,4.92,16.57,5.32,32.76,9.68c2.65.72,5.28,1.41,7.91,2.09l4.49,1.14q7.14,1.8,14.17,3.41a681.13,681.13,0,0,0,104,15.78Q463.63,101.26,467.91,101.5Z" transform="translate(1 -1)" fill="url(#linear-gradient-3)"/><path d="M600,88.05V101.5H526.38c21.77-1.4,39.79-4.33,53.09-8.16C587.2,91.12,594,89.38,600,88.05Z" transform="translate(1 -1)" fill="url(#linear-gradient-4)"/><path d="M0,20.63V101.5H221c-.11-.1-.21-.21-.31-.32a173.35,173.35,0,0,1-22-28.27,162.41,162.41,0,0,0-12.31-17.24,154.5,154.5,0,0,0-14.91-15.82c-22-20.26-47.52-32.1-72-38.85h-98L0,5.47Z" transform="translate(1 -1)" fill="url(#linear-gradient-5)"/><path d="M219.11,101l-.1.27-.09.23H0V20.63L2,1S9,22.85,33.54,46.16Q37.46,49.9,42,53.64c.79.64,1.59,1.29,2.41,1.94.66.52,1.33,1.05,2,1.57l1.4,1.06q3.38,2.55,7.08,5c3.38,2.28,7,4.53,10.74,6.71q2,1.17,4.11,2.31l0,0,.38.21.63.34.16.08h0l.5.27,0,0q6.09,3.24,12.87,6.25,5.42,2.4,11.29,4.6C126.38,95.63,166.62,103,219.11,101Z" transform="translate(1 -1)" fill="url(#linear-gradient-6)"/><polygon points="50.47 16 79.6 20.44 69.58 71.37 42.31 66.94 50.47 16" fill="#a69ff1" opacity="0.78"/><path d="M54.22,70.23,52,79.62s-5.82.23-6.05-2.34a45.23,45.23,0,0,1,0-6l3.49-6.6,4.75,4.58Z" transform="translate(1 -1)" fill="#c08bea"/><polygon points="84.03 28.15 58.4 20.44 48.61 54.32 45.34 64.6 70.05 73.71 84.03 28.15" fill="#d1cfe8"/><ellipse cx="60.03" cy="23.48" rx="2.33" ry="2.34" fill="#a69ff1"/><ellipse cx="81.12" cy="29.67" rx="2.21" ry="2.22" fill="#a69ff1"/><ellipse cx="68.07" cy="69.62" rx="2.68" ry="2.69" fill="#a69ff1"/><polygon points="58.44 20.52 84.11 28.02 83.61 29.73 57.94 22.24 58.44 20.52" fill="#a69ff1"/><polygon points="47.54 57.64 58.39 20.3 59.96 20.76 49.11 58.1 47.54 57.64" fill="#a69ff1"/><polygon points="68.97 73.31 82.3 27.45 84.14 27.99 70.81 73.85 68.97 73.31" fill="#a69ff1"/><polygon points="44.18 62.32 71.37 72.14 70.74 73.89 43.55 64.08 44.18 62.32" fill="#a69ff1"/><path d="M39,62.56S49.47,52.75,52,53.45s4.9-.47,4.67,7L39.45,76.81c.1.72-2.58,4.63-6.29,7.25-5.47,3.84-12.36,2.8-12.36,2.8L1,92V70.27L16.84,64.9,29.2,48.07,46,38.26,44.34,51.58l-6.29,3.74Z" transform="translate(1 -1)" fill="url(#linear-gradient-7)"/><ellipse cx="65.74" cy="44.86" rx="7.34" ry="7.13" fill="none" stroke="#a69ff1" stroke-miterlimit="10"/><rect x="483.78" y="22.49" width="100.75" height="55.51" rx="2.13" ry="2.13" fill="url(#linear-gradient-8)"/><path d="M510.9,58.75H490a1.39,1.39,0,0,1-1.35-1.43V48.17A1.39,1.39,0,0,1,490,46.74H510.9a1.4,1.4,0,0,1,1.35,1.43v9.15A1.4,1.4,0,0,1,510.9,58.75Z" transform="translate(1 -1)" fill="#fff" stroke="#000" stroke-miterlimit="10" stroke-width="0.7"/><polygon points="497.28 50.73 497.28 54.58 499.41 57.87 502.75 57.87 504.57 54.35 504.57 50.73 502.75 45.85 499.09 45.85 497.28 50.73" fill="#fff" stroke="#000" stroke-miterlimit="10" stroke-width="0.5"/><line x1="497.39" y1="50.73" x2="491.39" y2="50.73" fill="none" stroke="#000" stroke-miterlimit="10" stroke-width="0.5"/><line x1="497.39" y1="54.58" x2="491.39" y2="54.58" fill="none" stroke="#000" stroke-miterlimit="10" stroke-width="0.5"/><line x1="504.68" y1="50.73" x2="510.89" y2="50.73" fill="none" stroke="#000" stroke-miterlimit="10" stroke-width="0.5"/><line x1="504.68" y1="54.35" x2="510.89" y2="54.35" fill="none" stroke="#000" stroke-miterlimit="10" stroke-width="0.7"/><text transform="translate(540.54 38.56) scale(0.81 1)" font-size="10.82" font-family="Arial-ItalicMT, Arial" font-style="italic">payments</text><path d="M540.08,50.52h1.36v.25h-1.07v.79h.91v.25h-.91v1h-.29Z" transform="translate(1 -1)"/><path d="M541.92,52.4c0-.38.35-.57,1.2-.64a.4.4,0,0,0-.44-.44,1.09,1.09,0,0,0-.57.21l-.11-.2a1.38,1.38,0,0,1,.73-.25.63.63,0,0,1,.67.71v1.06h-.24l0-.23h0a1.08,1.08,0,0,1-.65.27A.51.51,0,0,1,541.92,52.4Zm1.2,0V52c-.71.06-.92.2-.92.43s.17.28.36.28A.92.92,0,0,0,543.12,52.4Z" transform="translate(1 -1)"/><path d="M544,51.12h.23l0,.3h0a.83.83,0,0,1,.61-.34c.39,0,.57.24.57.7v1.07h-.28v-1c0-.33-.11-.48-.37-.48s-.33.1-.52.31v1.2H544Z" transform="translate(1 -1)"/><path d="M545.92,53.56l.06-.24a.37.37,0,0,0,.15,0,.48.48,0,0,0,.45-.37l0-.12-.76-1.74h.28l.4,1c.07.15.14.33.21.5h0l.17-.5.36-1h.27L546.83,53c-.12.34-.32.6-.69.6A.73.73,0,0,1,545.92,53.56Z" transform="translate(1 -1)"/><path d="M548,52.4c0-.38.34-.57,1.19-.64a.4.4,0,0,0-.44-.44,1.09,1.09,0,0,0-.57.21l-.11-.2a1.41,1.41,0,0,1,.73-.25.63.63,0,0,1,.67.71v1.06h-.24l0-.23h0a1,1,0,0,1-.64.27A.5.5,0,0,1,548,52.4Zm1.19,0V52c-.7.06-.92.2-.92.43s.17.28.36.28A.9.9,0,0,0,549.18,52.4Z" transform="translate(1 -1)"/><path d="M550.07,50.52h.63c.45,0,.76.16.76.57a.51.51,0,0,1-.39.51h0a.54.54,0,0,1,.51.56c0,.46-.33.68-.83.68h-.68Zm.58,1c.38,0,.53-.13.53-.39s-.18-.34-.51-.34h-.32v.73Zm.06,1.1c.38,0,.6-.13.6-.45s-.21-.4-.6-.4h-.36v.85Z" transform="translate(1 -1)"/><path d="M552.82,51.36h-.76v-.24h1v1.73h-.28Zm-.11-.83a.22.22,0,0,1,.44,0,.22.22,0,1,1-.44,0Z" transform="translate(1 -1)"/><path d="M554.05,52.4c0-.38.34-.57,1.19-.64a.4.4,0,0,0-.44-.44,1.09,1.09,0,0,0-.57.21l-.11-.2a1.41,1.41,0,0,1,.73-.25.63.63,0,0,1,.67.71v1.06h-.23l0-.23h0a1,1,0,0,1-.64.27A.5.5,0,0,1,554.05,52.4Zm1.19,0V52c-.7.06-.92.2-.92.43s.17.28.36.28A.9.9,0,0,0,555.24,52.4Z" transform="translate(1 -1)"/><path d="M556,52.62l.13-.19a1.14,1.14,0,0,0,.71.23c.27,0,.41-.12.41-.26s-.06-.23-.51-.32-.64-.25-.64-.51.23-.49.68-.49a1.16,1.16,0,0,1,.66.22l-.13.19a.93.93,0,0,0-.55-.18c-.28,0-.38.12-.38.25s.14.21.48.29c.54.12.67.26.67.53s-.26.51-.73.51A1.35,1.35,0,0,1,556,52.62Z" transform="translate(1 -1)"/><path d="M558.13,50.32h.28v1.1h0a.8.8,0,0,1,.61-.34c.38,0,.56.24.56.7v1.07h-.28v-1c0-.33-.1-.48-.37-.48s-.33.1-.52.31v1.2h-.28Z" transform="translate(1 -1)"/><path d="M560.11,52.4c0-.38.34-.57,1.19-.64a.4.4,0,0,0-.43-.44,1.1,1.1,0,0,0-.58.21l-.11-.2a1.44,1.44,0,0,1,.73-.25.63.63,0,0,1,.67.71v1.06h-.23l0-.23h0a1,1,0,0,1-.64.27A.5.5,0,0,1,560.11,52.4Zm1.19,0V52c-.7.06-.91.2-.91.43s.16.28.35.28A.9.9,0,0,0,561.3,52.4Z" transform="translate(1 -1)"/><path d="M562.35,51.12h.23l0,.41h0a.84.84,0,0,1,.73-.45.68.68,0,0,1,.32.07l-.06.25a1.06,1.06,0,0,0-.31,0,.77.77,0,0,0-.67.49v1h-.28Z" transform="translate(1 -1)"/><path d="M564.15,52.4c0-.38.34-.57,1.19-.64a.4.4,0,0,0-.43-.44,1.1,1.1,0,0,0-.58.21l-.11-.2a1.44,1.44,0,0,1,.73-.25.63.63,0,0,1,.67.71v1.06h-.23l0-.23h0a1,1,0,0,1-.64.27A.5.5,0,0,1,564.15,52.4Zm1.19,0V52c-.7.06-.91.2-.91.43s.17.28.35.28A.9.9,0,0,0,565.34,52.4Z" transform="translate(1 -1)"/><ellipse cx="564.83" cy="67.31" rx="4.83" ry="4.85" fill="#fff" stroke="#000" stroke-miterlimit="10" stroke-width="0.3"/><ellipse cx="570.17" cy="67.31" rx="4.83" ry="4.85" fill="#fff" stroke="#000" stroke-miterlimit="10" stroke-width="0.3"/><path d="M357.55,73.38,355.79,50.5c-.06-1.13-1.87-3.19-4.06-3.19H315.07a4.17,4.17,0,0,0,.06-.71V29.74a5,5,0,0,0-.21-1.39h7.65a2,2,0,0,0,1.88-2V17a2.07,2.07,0,0,0-.38-1.21,1.82,1.82,0,0,0-1.5-.82h-24.5a2,2,0,0,0-1.89,2V26.3a2,2,0,0,0,1.89,2h7.65a4.41,4.41,0,0,0-.22,1.4V46.59a5.52,5.52,0,0,0,.05.71h-5.38c-2.19,0-4,1.94-6,2.51V77.07c0,5.37,3.79,9,6,9h51.55a2.45,2.45,0,0,0,1.65-.88c1.69-1.7,3.35-5.59,4.4-9Zm-15.8-5.78a1,1,0,0,1-1,1h-7.06a1,1,0,0,1-1-1V64a1,1,0,0,1,1-1h7.06a1,1,0,0,1,1,1Zm-4-11.52a1,1,0,0,1,1-1h7a1,1,0,0,1,1,1V59.7a1,1,0,0,1-1,1h-7a1,1,0,0,1-1-1Zm-11.64,0a1,1,0,0,1,1-1h7.06a1,1,0,0,1,.95,1v3.63a1,1,0,0,1-.95,1h-7.06a1,1,0,0,1-1-1ZM330.44,64V67.6a1,1,0,0,1-1,1h-7.05a1,1,0,0,1-1-1V64a1,1,0,0,1,1-1h7.05A1,1,0,0,1,330.44,64Zm-15.3-7.89a1,1,0,0,1,1-1h7a1,1,0,0,1,1,1v3.64a1,1,0,0,1-1,1h-7a1,1,0,0,1-1-1Zm1.7,6.86a1,1,0,0,1,1,1V67.6a1,1,0,0,1-1,1h-7a1,1,0,0,1-1-1V64a1,1,0,0,1,1-1ZM300.16,23.64a1,1,0,0,1-1-1.06v-2.9a1,1,0,0,1,1-1.06h20.65a1,1,0,0,1,1,1.06v2.9a1,1,0,0,1-1,1.06Zm2.68,32.44a1,1,0,0,1,1-1h7.06a1,1,0,0,1,.95,1v3.63a1,1,0,0,1-.95,1H303.8a1,1,0,0,1-1-1Zm7.49,25.67a.54.54,0,0,1-.51-.56V79.07a.53.53,0,0,1,.51-.55h31.34a.55.55,0,0,1,.41.54v2.12a.54.54,0,0,1-.51.56Z" transform="translate(1 -1)" fill="url(#linear-gradient-9)"/><line y1="4.47" fill="none"/></g></svg>