<svg id="Layer_1" data-name="Layer 1" xmlns="http://www.w3.org/2000/svg" viewBox="0 0 404 497"><title>wine</title><path d="M132-228.5v86A131.53,131.53,0,0,1,93.06-48.94,131.53,131.53,0,0,1-.5-10h-99a131.53,131.53,0,0,1-93.56-38.94A131.53,131.53,0,0,1-232-142.5v-86H132m19-20H-251a151.58,151.58,0,0,0-1,17v89C-252-58.62-183.38,10-99.5,10h99C83.38,10,152-58.62,152-142.5v-89a151.58,151.58,0,0,0-1-17Z" transform="translate(252 248.5)"/><line x1="7.5" y1="90" x2="392.5" y2="90" fill="none" stroke="#000" stroke-miterlimit="10" stroke-width="20"/><line x1="201.5" y1="258" x2="201.5" y2="487" fill="none" stroke="#000" stroke-miterlimit="10" stroke-width="20"/><line x1="69.5" y1="487" x2="326.5" y2="487" fill="none" stroke="#000" stroke-miterlimit="10" stroke-width="20"/></svg>