<svg id="Layer_1" data-name="Layer 1" xmlns="http://www.w3.org/2000/svg" viewBox="0 0 404 495.5"><title>winegrass</title><path d="M135-231.5v89A134.5,134.5,0,0,1,95.18-46.82,134.5,134.5,0,0,1-.5-7h-99a134.5,134.5,0,0,1-95.68-39.82A134.5,134.5,0,0,1-235-142.5v-89H135m16-17H-251a151.58,151.58,0,0,0-1,17v89C-252-58.63-183.38,10-99.5,10h99C83.38,10,152-58.63,152-142.5v-89a151.58,151.58,0,0,0-1-17Z" transform="translate(252 248.5)"/><line x1="7.5" y1="90" x2="392.5" y2="90" fill="none" stroke="#000" stroke-miterlimit="10" stroke-width="17"/><line x1="201.5" y1="258" x2="201.5" y2="487" fill="none" stroke="#000" stroke-miterlimit="10" stroke-width="17"/><line x1="69.5" y1="487" x2="326.5" y2="487" fill="none" stroke="#000" stroke-miterlimit="10" stroke-width="17"/></svg>